<svg width="2124" height="2087" viewBox="0 0 2124 2087" fill="none" xmlns="http://www.w3.org/2000/svg">
<circle cx="1033" cy="1042" r="660.5" stroke="#747474"/>
<circle cx="1032.5" cy="1036.5" r="530" stroke="#747474"/>
<circle cx="1041.63" cy="1031.63" r="402.586" transform="rotate(-4.36978 1041.63 1031.63)" stroke="#747474"/>
<circle cx="895.934" cy="1538.69" r="68.7354" transform="rotate(-15.6048 895.934 1538.69)" fill="url(#paint0_radial_927_133)"/>
<ellipse cx="895.934" cy="1538.69" rx="11.3091" ry="27.163" transform="rotate(-15.6048 895.934 1538.69)" fill="url(#paint1_linear_927_133)"/>
<path d="M899.83 1537.6C901.838 1544.8 902.8 1551.53 902.742 1556.59C902.712 1559.12 902.427 1561.21 901.908 1562.71C901.383 1564.24 900.663 1565.05 899.849 1565.28C899.034 1565.51 897.997 1565.19 896.757 1564.15C895.532 1563.13 894.207 1561.5 892.869 1559.34C890.197 1555.05 887.532 1548.79 885.523 1541.6C883.515 1534.41 882.552 1527.68 882.611 1522.62C882.64 1520.08 882.926 1518 883.445 1516.49C883.97 1514.96 884.69 1514.15 885.504 1513.92C886.319 1513.69 887.356 1514.02 888.596 1515.05C889.821 1516.07 891.146 1517.71 892.484 1519.86C895.156 1524.16 897.821 1530.41 899.83 1537.6Z" fill="url(#paint2_linear_927_133)" stroke="black"/>
<circle cx="1083.06" cy="844.06" r="43.8747" transform="rotate(-15.6048 1083.06 844.06)" fill="url(#paint3_radial_927_133)"/>
<ellipse cx="1083.06" cy="844.06" rx="7.21875" ry="17.3385" transform="rotate(-15.6048 1083.06 844.06)" fill="url(#paint4_linear_927_133)"/>
<path d="M1085.37 843.414C1086.65 847.993 1087.26 852.272 1087.22 855.481C1087.21 857.088 1087.03 858.398 1086.7 859.335C1086.37 860.29 1085.94 860.737 1085.51 860.858C1085.08 860.979 1084.48 860.819 1083.7 860.173C1082.94 859.539 1082.11 858.513 1081.26 857.147C1079.56 854.422 1077.87 850.446 1076.59 845.867C1075.31 841.288 1074.7 837.009 1074.74 833.801C1074.76 832.193 1074.94 830.883 1075.26 829.946C1075.59 828.991 1076.02 828.544 1076.45 828.423C1076.88 828.302 1077.48 828.462 1078.26 829.108C1079.02 829.742 1079.86 830.768 1080.7 832.134C1082.4 834.859 1084.09 838.835 1085.37 843.414Z" fill="url(#paint5_linear_927_133)" stroke="black"/>
<circle cx="54.0599" cy="1120.06" r="43.8747" transform="rotate(-15.6048 54.0599 1120.06)" fill="url(#paint6_radial_927_133)"/>
<ellipse cx="54.0591" cy="1120.06" rx="7.21875" ry="17.3385" transform="rotate(-15.6048 54.0591 1120.06)" fill="url(#paint7_linear_927_133)"/>
<path d="M56.3716 1119.41C57.6505 1123.99 58.261 1128.27 58.2238 1131.48C58.2052 1133.09 58.0241 1134.4 57.7015 1135.34C57.3729 1136.29 56.9426 1136.74 56.5094 1136.86C56.0761 1136.98 55.4761 1136.82 54.7004 1136.17C53.9391 1135.54 53.1055 1134.51 52.2564 1133.15C50.5619 1130.42 48.8669 1126.45 47.588 1121.87C46.3091 1117.29 45.6986 1113.01 45.7358 1109.8C45.7544 1108.19 45.9355 1106.88 46.2581 1105.95C46.5868 1104.99 47.017 1104.54 47.4503 1104.42C47.8835 1104.3 48.4835 1104.46 49.2592 1105.11C50.0205 1105.74 50.8541 1106.77 51.7032 1108.13C53.3978 1110.86 55.0927 1114.83 56.3716 1119.41Z" fill="url(#paint8_linear_927_133)" stroke="black"/>
<circle cx="1362.84" cy="221.842" r="33.1475" transform="rotate(-15.6048 1362.84 221.842)" fill="url(#paint9_radial_927_133)"/>
<ellipse cx="1362.84" cy="221.842" rx="5.4538" ry="13.0993" transform="rotate(-15.6048 1362.84 221.842)" fill="url(#paint10_linear_927_133)"/>
<path d="M1364.47 221.387C1365.44 224.839 1365.89 228.059 1365.87 230.469C1365.85 231.678 1365.72 232.653 1365.48 233.343C1365.23 234.051 1364.93 234.341 1364.66 234.416C1364.39 234.491 1363.98 234.401 1363.4 233.922C1362.84 233.455 1362.22 232.692 1361.58 231.665C1360.31 229.619 1359.03 226.626 1358.07 223.175C1357.11 219.723 1356.65 216.503 1356.68 214.093C1356.69 212.884 1356.83 211.909 1357.06 211.219C1357.31 210.511 1357.61 210.221 1357.88 210.146C1358.15 210.071 1358.56 210.161 1359.14 210.64C1359.7 211.107 1360.32 211.871 1360.96 212.897C1362.23 214.943 1363.51 217.936 1364.47 221.387Z" fill="url(#paint11_linear_927_133)" stroke="black"/>
<ellipse cx="1061.79" cy="1811.21" rx="224.864" ry="222.6" transform="rotate(-15.6048 1061.79 1811.21)" fill="#AF6725" fill-opacity="0.06"/>
<ellipse cx="1061.79" cy="1811.21" rx="205.143" ry="203.067" transform="rotate(-15.6048 1061.79 1811.21)" fill="#775333" fill-opacity="0.13"/>
<mask id="mask0_927_133" style="mask-type:alpha" maskUnits="userSpaceOnUse" x="878" y="1628" width="367" height="367">
<circle r="183.156" transform="matrix(-0.96314 0.269001 0.269001 0.96314 1061.79 1811.21)" fill="#9B6432"/>
</mask>
<g mask="url(#mask0_927_133)">
<circle r="183.156" transform="matrix(-0.96314 0.269001 0.269001 0.96314 1061.79 1811.21)" fill="url(#paint12_linear_927_133)"/>
<path d="M908.21 1655.2C932.695 1639.54 1068.4 1600.07 1100.86 1672.94C1127.69 1733.16 1127.09 1745.93 1198.87 1774.31C1235.8 1788.9 1219.43 1779.04 1269.83 1815.32C1303.16 1856.65 1305.58 1910.93 1312.68 1920.28C1319.78 1929.63 1291.09 1933.65 1275.86 1934.48C1270.28 1898.56 1242.83 1823.57 1177.69 1810.96C1093.49 1776.6 1076.88 1752.69 1033.9 1701.02C983.994 1650.11 962.811 1686.76 962.811 1686.76C917.464 1663.98 895.736 1669.11 891.378 1670.73C890.286 1671.33 890.249 1671.14 891.378 1670.73C893.447 1669.59 899.303 1665.65 908.21 1655.2Z" fill="#BEBEBE" fill-opacity="0.1"/>
<path d="M1277.81 1933.98C1257.63 1964.45 1133.92 2075.57 1083.69 2001.69C1042.17 1940.64 1039.56 1924.77 961.77 1923.45C921.748 1922.76 940.335 1927.21 881.618 1906.31C838.442 1871.33 822.448 1806.2 813.113 1798.09C803.778 1789.97 831.013 1771.77 845.797 1763.68C860.302 1804.93 906.137 1883.72 973.436 1868.89C1064.94 1871.76 1087.29 1893.24 1142.56 1936.37C1204.47 1975.34 1216.13 1920.79 1216.13 1920.79C1266.49 1927.56 1286.6 1911.21 1290.48 1907.22C1291.41 1905.98 1291.49 1906.19 1290.48 1907.22C1288.73 1909.57 1283.95 1917.09 1277.81 1933.98Z" fill="#BEBEBE" fill-opacity="0.1"/>
</g>
<path d="M1060.08 1864.2L1061.72 1876.5C1061.9 1877.86 1063.15 1878.82 1064.52 1878.63L1074.38 1877.32C1075.03 1877.23 1075.62 1876.89 1076.02 1876.37C1076.42 1875.84 1076.6 1875.18 1076.51 1874.53L1074.87 1862.23L1079.8 1861.57L1081.44 1873.87C1081.62 1875.23 1082.88 1876.19 1084.24 1876.01L1094.1 1874.69C1094.75 1874.6 1095.34 1874.26 1095.74 1873.74C1096.15 1873.21 1096.32 1872.55 1096.23 1871.9L1094.59 1859.6L1095.42 1859.49C1115.07 1856.87 1127.75 1844.84 1125.41 1827.25C1123.44 1812.47 1112.43 1805.72 1100.65 1806.12L1100.54 1805.25C1109.78 1801.59 1115.85 1793.45 1114.26 1781.49C1112.25 1766.41 1099.69 1758.77 1082.38 1761.08L1081.47 1761.2L1079.84 1748.9C1079.75 1748.25 1079.4 1747.66 1078.88 1747.26C1078.36 1746.86 1077.7 1746.68 1077.04 1746.77L1067.18 1748.08C1066.53 1748.17 1065.93 1748.51 1065.53 1749.04C1065.13 1749.56 1064.96 1750.22 1065.04 1750.87L1066.68 1763.17L1061.03 1763.93L1059.39 1751.63C1059.31 1750.97 1058.96 1750.38 1058.44 1749.98C1057.92 1749.58 1057.25 1749.41 1056.6 1749.49L1047.46 1750.71C1046.81 1750.8 1046.21 1751.14 1045.81 1751.67C1045.41 1752.19 1045.24 1752.85 1045.32 1753.5L1046.96 1765.8L1027.28 1768.54C1026.62 1768.62 1026.03 1768.97 1025.63 1769.49C1025.23 1770.01 1025.05 1770.67 1025.14 1771.33L1026.44 1781.06C1026.62 1782.41 1027.85 1783.37 1029.21 1783.19L1036.65 1782.15C1038.6 1781.9 1040.57 1782.44 1042.14 1783.64C1043.7 1784.84 1044.72 1786.6 1044.98 1788.55L1052.2 1842.72C1052.46 1844.68 1051.93 1846.66 1050.73 1848.23C1049.53 1849.8 1047.75 1850.83 1045.79 1851.09L1038.43 1852.18C1037.77 1852.27 1037.18 1852.61 1036.78 1853.13C1036.38 1853.65 1036.2 1854.31 1036.29 1854.97L1037.6 1864.81C1037.78 1866.16 1039.03 1867.12 1040.39 1866.94L1060.08 1864.2ZM1062.98 1778.56L1079.94 1776.3C1088.87 1775.11 1094.77 1779.31 1095.84 1787.32C1096.98 1795.89 1091.95 1801.48 1079.11 1803.19L1066.49 1804.87L1062.98 1778.56V1778.56ZM1068.3 1818.42L1086.44 1816C1097.65 1814.51 1104.52 1819.4 1105.76 1828.69C1107.01 1838.07 1101.49 1843.78 1086.38 1845.79L1072.2 1847.69L1068.3 1818.43L1068.3 1818.42Z" fill="#FFF4CB"/>
<path d="M1072.67 1872.48L1074.51 1886.27C1074.71 1887.8 1076.11 1888.87 1077.64 1888.66L1088.69 1887.19C1089.43 1887.09 1090.09 1886.71 1090.54 1886.12C1090.99 1885.53 1091.19 1884.79 1091.09 1884.06L1089.25 1870.27L1094.78 1869.53L1096.62 1883.33C1096.82 1884.85 1098.22 1885.92 1099.75 1885.72L1110.8 1884.24C1111.54 1884.14 1112.2 1883.76 1112.65 1883.17C1113.1 1882.59 1113.3 1881.85 1113.2 1881.11L1111.36 1867.32L1112.29 1867.2C1134.31 1864.26 1148.53 1850.77 1145.9 1831.05C1143.69 1814.48 1131.35 1806.9 1118.15 1807.35L1118.02 1806.38C1128.38 1802.28 1135.19 1793.15 1133.4 1779.73C1131.15 1762.83 1117.07 1754.26 1097.67 1756.85L1096.65 1756.99L1094.81 1743.19C1094.71 1742.46 1094.33 1741.8 1093.74 1741.35C1093.15 1740.9 1092.41 1740.71 1091.68 1740.8L1080.62 1742.28C1079.89 1742.37 1079.23 1742.76 1078.78 1743.35C1078.33 1743.93 1078.13 1744.67 1078.23 1745.4L1080.07 1759.2L1073.73 1760.04L1071.89 1746.25C1071.8 1745.52 1071.41 1744.85 1070.83 1744.41C1070.24 1743.96 1069.5 1743.76 1068.76 1743.86L1058.52 1745.22C1057.78 1745.32 1057.12 1745.71 1056.67 1746.29C1056.22 1746.88 1056.02 1747.62 1056.12 1748.35L1057.96 1762.14L1035.89 1765.21C1035.16 1765.31 1034.49 1765.69 1034.04 1766.28C1033.59 1766.86 1033.4 1767.61 1033.49 1768.34L1034.95 1779.25C1035.15 1780.76 1036.53 1781.85 1038.06 1781.64L1046.4 1780.47C1048.59 1780.2 1050.8 1780.8 1052.55 1782.14C1054.3 1783.49 1055.44 1785.47 1055.73 1787.65L1063.83 1848.39C1064.13 1850.59 1063.53 1852.81 1062.18 1854.57C1060.84 1856.33 1058.84 1857.48 1056.65 1857.77L1048.39 1859C1047.66 1859.09 1047 1859.48 1046.55 1860.07C1046.1 1860.65 1045.9 1861.39 1046 1862.12L1047.47 1873.16C1047.67 1874.68 1049.07 1875.75 1050.6 1875.55L1072.67 1872.48ZM1075.92 1776.45L1094.92 1773.91C1104.94 1772.58 1111.55 1777.29 1112.75 1786.27C1114.03 1795.88 1108.4 1802.15 1094 1804.07L1079.85 1805.95L1075.92 1776.45V1776.45ZM1081.88 1821.15L1102.22 1818.43C1114.79 1816.76 1122.49 1822.24 1123.87 1832.66C1125.28 1843.18 1119.09 1849.58 1102.15 1851.84L1086.26 1853.96L1081.88 1821.16L1081.88 1821.15Z" fill="url(#paint13_linear_927_133)"/>
<path d="M1076.6 1679.37C1155.72 1708.9 1221.67 1750.76 1264.35 1794.56C1307.06 1838.4 1326.33 1884.02 1312.49 1921.13C1298.64 1958.23 1254.19 1980.08 1193.21 1985.22C1132.27 1990.36 1055.01 1978.79 975.889 1949.27C896.768 1919.74 830.813 1877.88 788.134 1834.07C745.425 1790.24 726.151 1744.62 739.996 1707.51C753.842 1670.4 798.292 1648.56 859.275 1643.42C920.215 1638.28 997.475 1649.85 1076.6 1679.37Z" stroke="#FFF5D3"/>
<ellipse cx="1771.99" cy="1021.25" rx="176.872" ry="175.09" transform="rotate(-15.6048 1771.99 1021.25)" fill="#211B5D" fill-opacity="0.33"/>
<ellipse cx="1771.99" cy="1021.25" rx="161.359" ry="159.726" transform="rotate(-15.6048 1771.99 1021.25)" fill="#211B5D" fill-opacity="0.13"/>
<mask id="mask1_927_133" style="mask-type:alpha" maskUnits="userSpaceOnUse" x="1627" y="877" width="290" height="289">
<circle r="144.065" transform="matrix(-0.96314 0.269001 0.269001 0.96314 1771.99 1021.25)" fill="#9B6432"/>
</mask>
<g mask="url(#mask1_927_133)">
<circle r="144.065" transform="matrix(-0.96314 0.269001 0.269001 0.96314 1771.99 1021.25)" fill="url(#paint14_linear_927_133)"/>
<path d="M1649.92 885.369C1667.67 874.107 1766.17 845.926 1789.95 898.731C1809.61 942.375 1809.21 951.612 1861.45 972.335C1888.32 982.997 1876.4 975.815 1913.12 1002.2C1937.45 1032.19 1939.36 1071.47 1944.54 1078.25C1949.73 1085.04 1928.9 1087.86 1917.83 1088.43C1913.68 1062.42 1893.52 1008.09 1846.15 998.79C1784.89 973.707 1772.75 956.362 1741.38 918.862C1704.98 881.895 1689.68 908.35 1689.68 908.35C1656.67 891.745 1640.9 895.401 1637.74 896.557C1636.94 896.988 1636.92 896.856 1637.74 896.557C1639.24 895.74 1643.48 892.906 1649.92 885.369Z" fill="#BEBEBE" fill-opacity="0.15"/>
<path d="M1563.39 1035.08C1584.73 1017.6 1697.44 964.838 1714.7 1028.92C1728.97 1081.89 1726.99 1093.86 1780.81 1111.85C1808.49 1121.11 1796.62 1113.84 1832.48 1141.72C1854.15 1176.31 1849.69 1226.61 1854.24 1234.49C1858.79 1242.37 1835.48 1249.48 1823.25 1252.06C1823.04 1219.24 1810.01 1152.58 1759.62 1148.5C1696.63 1126.4 1686.22 1106.07 1658.08 1062.98C1624.34 1021.41 1603.15 1058.06 1603.15 1058.06C1569.73 1042.17 1551.82 1049.51 1548.16 1051.53C1547.22 1052.22 1547.21 1052.05 1548.16 1051.53C1549.94 1050.23 1555.07 1045.87 1563.39 1035.08Z" fill="#BEBEBE" fill-opacity="0.1"/>
</g>
<g clip-path="url(#clip0_927_133)">
<path d="M1771.06 946.634L1770.13 950.047L1772.25 1048.45L1773.26 1049.43L1818.34 1021.45L1771.06 946.634Z" fill="url(#paint15_linear_927_133)"/>
<path d="M1771.06 946.634L1727.03 1023.41L1773.26 1049.43L1772.24 1001.66L1771.06 946.634Z" fill="#DDDFF9"/>
<path d="M1773.45 1058.07L1772.9 1058.77L1773.66 1093.83L1774.25 1095.46L1818.56 1030.11L1773.45 1058.07Z" fill="url(#paint16_linear_927_133)"/>
<path d="M1774.25 1095.46L1773.45 1058.07L1727.21 1032.07L1774.25 1095.46Z" fill="#DDDFF9"/>
<path d="M1773.26 1049.43L1818.34 1021.45L1772.24 1001.66L1773.26 1049.43Z" fill="url(#paint17_linear_927_133)"/>
<path d="M1727.03 1023.41L1773.26 1049.43L1772.24 1001.66L1727.03 1023.41Z" fill="url(#paint18_linear_927_133)"/>
</g>
<path d="M1828.84 1150.78C1747.56 1173.69 1669.61 1178.87 1609.3 1168.73C1548.95 1158.59 1506.44 1133.16 1495.7 1095.04C1484.95 1056.92 1507.91 1013.04 1554.08 972.868C1600.22 932.726 1669.4 896.427 1750.68 873.514C1831.96 850.601 1909.91 845.424 1970.22 855.558C2030.57 865.699 2073.08 891.128 2083.82 929.248C2094.57 967.368 2071.61 1011.25 2025.44 1051.42C1979.3 1091.56 1910.12 1127.86 1828.84 1150.78Z" stroke="#FFFBFB"/>
<ellipse cx="963.555" cy="187.862" rx="154.468" ry="151.909" transform="rotate(-15.6048 963.555 187.862)" fill="#AC2626" fill-opacity="0.17"/>
<ellipse cx="963.555" cy="187.862" rx="141.001" ry="138.577" transform="rotate(-15.6048 963.555 187.862)" fill="#A42828" fill-opacity="0.24"/>
<mask id="mask2_927_133" style="mask-type:alpha" maskUnits="userSpaceOnUse" x="837" y="62" width="253" height="251">
<ellipse rx="125.837" ry="124.992" transform="matrix(-0.96314 0.269001 0.269001 0.96314 963.687 187.856)" fill="#9B6432"/>
</mask>
<g mask="url(#mask2_927_133)">
<ellipse rx="125.837" ry="124.992" transform="matrix(-0.96314 0.269001 0.269001 0.96314 963.687 187.856)" fill="url(#paint19_linear_927_133)"/>
<path d="M764.307 89.3337C788.219 61.6953 925.125 -32.6863 965.494 47.0042C998.859 112.868 999.422 128.936 1076.4 140.203C1116.01 146 1098.14 139.211 1153.7 167.454C1192.05 207.663 1199.58 274.303 1207.8 283.548C1216.02 292.794 1186.68 307.362 1170.99 313.49C1161.88 270.724 1126.5 186.717 1057.85 192.816C967.466 178.265 948.045 154.106 898.743 104.265C842.333 57.6884 823.785 110.301 823.785 110.301C774.706 97.148 752.676 110.789 748.311 114.251C747.235 115.361 747.181 115.147 748.311 114.251C750.348 112.148 756.049 105.295 764.307 89.3337Z" fill="#BEBEBE" fill-opacity="0.1"/>
<path d="M706.258 189.764C730.17 162.126 867.076 67.7444 907.445 147.435C940.81 213.299 941.373 229.367 1018.35 240.634C1057.96 246.431 1040.09 239.642 1095.65 267.885C1134 308.093 1141.53 374.733 1149.75 383.979C1157.97 393.225 1128.63 407.793 1112.94 413.921C1103.83 371.155 1068.45 287.148 999.804 293.247C909.417 278.696 889.996 254.537 840.695 204.696C784.284 158.119 765.736 210.732 765.736 210.732C716.657 197.579 694.627 211.219 690.262 214.682C689.186 215.792 689.132 215.578 690.262 214.682C692.3 212.579 698 205.726 706.258 189.764Z" fill="#BEBEBE" fill-opacity="0.1"/>
</g>
<path d="M986.644 200.586L1000.06 213.658L961.942 247.363L925.635 211.98L939.721 199.525L962.612 221.95L986.644 200.586V200.586ZM1010.68 179.336L1024.21 192.41L1010.14 204.86L996.719 191.788L1010.68 179.336V179.336ZM963.755 178.274L977.17 191.233L963.085 203.688L949.669 190.724L963.75 178.279L963.755 178.274ZM916.821 177.213L930.123 190.282L916.167 202.622L902.741 189.663L916.821 177.213V177.213ZM964.9 134.702L1001.21 169.982L987.124 182.427L964.23 160.115L940.198 181.479L926.78 168.408L964.895 134.707L964.9 134.702Z" fill="url(#paint20_linear_927_133)"/>
<path d="M986.648 191.434L1000.07 204.506L961.947 238.211L925.64 202.828L939.725 190.373L962.616 212.798L986.648 191.434V191.434ZM1010.69 170.183L1024.22 183.257L1010.14 195.707L996.724 182.636L1010.69 170.183V170.183ZM963.759 169.122L977.175 182.081L963.089 194.535L949.674 181.572L963.754 169.127L963.759 169.122ZM916.826 168.061L930.127 181.13L916.171 193.47L902.745 180.511L916.826 168.061V168.061ZM964.904 125.55L1001.21 160.83L987.128 173.275L964.234 150.963L940.202 172.327L926.785 159.255L964.899 125.554L964.904 125.55Z" fill="url(#paint21_linear_927_133)"/>
<path d="M962.443 132.802C1045.07 115.244 1122.05 109.704 1179.72 114.93C1208.55 117.543 1232.53 122.846 1249.96 130.664C1267.4 138.488 1278.18 148.782 1280.85 161.326C1283.52 173.869 1277.85 187.66 1265.1 201.9C1252.35 216.13 1232.6 230.724 1207.32 244.837C1156.77 273.061 1084.18 299.305 1001.56 316.863C918.931 334.421 841.948 339.961 784.282 334.735C755.447 332.122 731.471 326.819 714.042 319.001C696.601 311.177 685.815 300.883 683.15 288.339C680.484 275.795 686.151 262.005 698.904 247.765C711.647 233.535 731.395 218.941 756.677 204.827C807.234 176.604 879.818 150.36 962.443 132.802Z" stroke="#FFF8DE"/>
<ellipse cx="339.932" cy="1038.49" rx="153.338" ry="150.798" transform="rotate(-15.6048 339.932 1038.49)" fill="#9926AC" fill-opacity="0.19"/>
<ellipse cx="339.932" cy="1038.49" rx="139.97" ry="137.563" transform="rotate(-15.6048 339.932 1038.49)" fill="#9328A4" fill-opacity="0.22"/>
<mask id="mask3_927_133" style="mask-type:alpha" maskUnits="userSpaceOnUse" x="215" y="914" width="250" height="249">
<ellipse rx="124.917" ry="124.078" transform="matrix(-0.96314 0.269001 0.269001 0.96314 339.955 1038.48)" fill="#9B6432"/>
</mask>
<g mask="url(#mask3_927_133)">
<ellipse rx="124.917" ry="124.078" transform="matrix(-0.96314 0.269001 0.269001 0.96314 339.955 1038.48)" fill="url(#paint22_linear_927_133)"/>
<path d="M524.073 1114.52C503.893 1144.99 380.184 1256.11 329.953 1182.24C288.438 1121.18 285.825 1105.32 208.038 1103.99C168.016 1103.31 186.602 1107.75 127.885 1086.85C84.7099 1051.88 68.7153 986.747 59.3803 978.629C50.0454 970.51 77.2805 952.309 92.0649 944.224C106.57 985.473 152.404 1064.26 219.703 1049.44C311.208 1052.31 333.56 1073.78 388.832 1116.91C450.736 1155.89 462.402 1101.33 462.402 1101.33C512.761 1108.1 532.865 1091.76 536.751 1087.76C537.676 1086.53 537.757 1086.73 536.751 1087.76C534.999 1090.11 530.222 1097.64 524.073 1114.52Z" fill="#BEBEBE" fill-opacity="0.1"/>
<path d="M113.063 924.136C136.975 896.498 273.881 802.116 314.25 881.806C347.615 947.67 348.178 963.739 425.156 975.005C464.762 980.802 446.897 974.013 502.458 1002.26C540.805 1042.46 548.338 1109.1 556.558 1118.35C564.778 1127.6 535.439 1142.16 519.741 1148.29C510.632 1105.53 475.252 1021.52 406.609 1027.62C316.223 1013.07 296.801 988.908 247.5 939.067C191.089 892.491 172.542 945.104 172.542 945.104C123.462 931.95 101.432 945.591 97.0673 949.053C95.9914 950.164 95.937 949.95 97.0673 949.053C99.1047 946.95 104.806 940.098 113.063 924.136Z" fill="#BEBEBE" fill-opacity="0.1"/>
</g>
<path d="M356.323 1056.96L374.463 1043.51L377.225 1047.2L366.675 1055.02L363.463 1057.4L365.86 1060.61L369.71 1065.75L367.68 1067.25L363.83 1062.11L361.433 1058.91L358.22 1061.29L347.67 1069.12L345.162 1065.77L345.018 1022.54L344.992 1014.62L338.612 1019.35L320.481 1032.8L317.715 1029.1L328.261 1021.28L331.474 1018.9L329.076 1015.7L325.202 1010.52L327.232 1009.02L331.109 1014.19L333.507 1017.4L336.719 1015.01L347.265 1007.19L349.774 1010.54L349.917 1053.77L349.944 1061.69L356.323 1056.96ZM300.256 1073.18C280.941 1047.38 286.373 1010.67 312.425 991.349C338.477 972.026 375.372 977.339 394.687 1003.13C414.002 1028.93 408.57 1065.64 382.518 1084.96C356.466 1104.28 319.571 1098.97 300.256 1073.18ZM302.151 1071.77C320.729 1096.58 356.153 1101.64 381.134 1083.11C406.116 1064.59 411.37 1029.35 392.792 1004.54C374.213 979.728 338.79 974.668 313.808 993.197C288.827 1011.73 283.573 1046.96 302.151 1071.77Z" fill="#B591BA" stroke="#CEAAD3" stroke-width="8"/>
<path d="M360.809 1050.52L378.948 1037.06L381.711 1040.75L371.161 1048.58L367.948 1050.96L370.345 1054.16L374.195 1059.3L372.165 1060.81L368.316 1055.67L365.918 1052.46L362.706 1054.85L352.156 1062.67L349.647 1059.32L349.503 1016.1L349.477 1008.17L343.097 1012.9L324.966 1026.35L322.201 1022.66L332.747 1014.83L335.959 1012.45L333.562 1009.25L329.687 1004.08L331.717 1002.57L335.595 1007.75L337.992 1010.95L341.205 1008.57L351.75 1000.75L354.259 1004.1L354.403 1047.32L354.429 1055.25L360.809 1050.52ZM304.741 1066.73C285.427 1040.93 290.859 1004.23 316.91 984.903C342.962 965.58 379.857 970.892 399.172 996.689C418.487 1022.48 413.055 1059.19 387.003 1078.52C360.951 1097.84 324.056 1092.53 304.741 1066.73ZM306.637 1065.32C325.215 1090.14 360.638 1095.2 385.62 1076.67C410.601 1058.14 415.855 1022.91 397.277 998.094C378.699 973.282 343.275 968.221 318.294 986.75C293.312 1005.28 288.058 1040.51 306.637 1065.32Z" fill="url(#paint23_linear_927_133)" stroke="#3E0947" stroke-width="8"/>
<path d="M299.443 950.953C382.068 933.395 459.052 927.855 516.717 933.081C545.553 935.694 569.529 940.997 586.958 948.815C604.399 956.639 615.185 966.933 617.85 979.477C620.516 992.021 614.849 1005.81 602.096 1020.05C589.352 1034.28 569.605 1048.88 544.323 1062.99C493.766 1091.21 421.182 1117.46 338.557 1135.01C255.931 1152.57 178.948 1158.11 121.282 1152.89C92.4466 1150.27 68.4707 1144.97 51.0416 1137.15C33.6005 1129.33 22.8153 1119.03 20.1497 1106.49C17.4841 1093.95 23.1513 1080.16 35.9038 1065.92C48.6475 1051.69 68.3952 1037.09 93.6766 1022.98C144.234 994.755 216.818 968.511 299.443 950.953Z" stroke="#1A1A1A"/>
<path d="M312.585 912.411C395.788 897.955 473.857 900.8 532.81 917.065C591.805 933.342 631.476 962.996 638.256 1002.02C645.036 1041.04 617.693 1082.34 567.647 1117.56C517.635 1152.76 445.101 1181.77 361.899 1196.23C278.697 1210.68 200.627 1207.84 141.674 1191.57C82.6789 1175.3 43.0086 1145.64 36.2286 1106.62C29.4486 1067.6 56.7908 1026.3 106.837 991.079C156.849 955.881 229.383 926.868 312.585 912.411Z" stroke="#FFF5D3"/>
<defs>
<radialGradient id="paint0_radial_927_133" cx="0" cy="0" r="1" gradientUnits="userSpaceOnUse" gradientTransform="translate(876.803 1489.76) rotate(80.7659) scale(119.216)">
<stop stop-color="#464662"/>
<stop offset="1" stop-color="#090826"/>
</radialGradient>
<linearGradient id="paint1_linear_927_133" x1="895.934" y1="1511.53" x2="895.934" y2="1565.85" gradientUnits="userSpaceOnUse">
<stop stop-color="white"/>
<stop offset="1" stop-color="#B7B7CB" stop-opacity="0"/>
</linearGradient>
<linearGradient id="paint2_linear_927_133" x1="885.37" y1="1513.44" x2="899.983" y2="1565.76" gradientUnits="userSpaceOnUse">
<stop stop-color="white"/>
<stop offset="1" stop-color="#B7B7CB" stop-opacity="0"/>
</linearGradient>
<radialGradient id="paint3_radial_927_133" cx="0" cy="0" r="1" gradientUnits="userSpaceOnUse" gradientTransform="translate(1070.85 812.823) rotate(80.7659) scale(76.0972)">
<stop stop-color="#464662"/>
<stop offset="1" stop-color="#090826"/>
</radialGradient>
<linearGradient id="paint4_linear_927_133" x1="1083.06" y1="826.721" x2="1083.06" y2="861.398" gradientUnits="userSpaceOnUse">
<stop stop-color="white"/>
<stop offset="1" stop-color="#B7B7CB" stop-opacity="0"/>
</linearGradient>
<linearGradient id="paint5_linear_927_133" x1="1076.32" y1="827.941" x2="1085.64" y2="861.34" gradientUnits="userSpaceOnUse">
<stop stop-color="white"/>
<stop offset="1" stop-color="#B7B7CB" stop-opacity="0"/>
</linearGradient>
<radialGradient id="paint6_radial_927_133" cx="0" cy="0" r="1" gradientUnits="userSpaceOnUse" gradientTransform="translate(41.8487 1088.82) rotate(80.7659) scale(76.0972)">
<stop stop-color="#464662"/>
<stop offset="1" stop-color="#090826"/>
</radialGradient>
<linearGradient id="paint7_linear_927_133" x1="54.0591" y1="1102.72" x2="54.0591" y2="1137.4" gradientUnits="userSpaceOnUse">
<stop stop-color="white"/>
<stop offset="1" stop-color="#B7B7CB" stop-opacity="0"/>
</linearGradient>
<linearGradient id="paint8_linear_927_133" x1="47.3157" y1="1103.94" x2="56.6439" y2="1137.34" gradientUnits="userSpaceOnUse">
<stop stop-color="white"/>
<stop offset="1" stop-color="#B7B7CB" stop-opacity="0"/>
</linearGradient>
<radialGradient id="paint9_radial_927_133" cx="0" cy="0" r="1" gradientUnits="userSpaceOnUse" gradientTransform="translate(1353.62 198.243) rotate(80.7659) scale(57.4917)">
<stop stop-color="#464662"/>
<stop offset="1" stop-color="#090826"/>
</radialGradient>
<linearGradient id="paint10_linear_927_133" x1="1362.84" y1="208.743" x2="1362.84" y2="234.942" gradientUnits="userSpaceOnUse">
<stop stop-color="white"/>
<stop offset="1" stop-color="#B7B7CB" stop-opacity="0"/>
</linearGradient>
<linearGradient id="paint11_linear_927_133" x1="1357.75" y1="209.665" x2="1364.79" y2="234.897" gradientUnits="userSpaceOnUse">
<stop stop-color="white"/>
<stop offset="1" stop-color="#B7B7CB" stop-opacity="0"/>
</linearGradient>
<linearGradient id="paint12_linear_927_133" x1="337.132" y1="274.892" x2="25.5464" y2="75.0273" gradientUnits="userSpaceOnUse">
<stop offset="0.151042" stop-color="#4E3622"/>
<stop offset="1" stop-color="#C47733"/>
</linearGradient>
<linearGradient id="paint13_linear_927_133" x1="1082.02" y1="1742.09" x2="1101.14" y2="1885.53" gradientUnits="userSpaceOnUse">
<stop stop-color="#6B4A2D"/>
<stop offset="1" stop-color="#211913"/>
</linearGradient>
<linearGradient id="paint14_linear_927_133" x1="91.0285" y1="3.33016" x2="208.044" y2="289.848" gradientUnits="userSpaceOnUse">
<stop stop-color="#271B9B"/>
<stop offset="1" stop-color="#0F0B3A"/>
</linearGradient>
<linearGradient id="paint15_linear_927_133" x1="1793.39" y1="946.155" x2="1795.6" y2="1048.95" gradientUnits="userSpaceOnUse">
<stop offset="0.333333" stop-color="#8689B0"/>
<stop offset="1" stop-color="#61648E"/>
</linearGradient>
<linearGradient id="paint16_linear_927_133" x1="1795.43" y1="1030.6" x2="1796.82" y2="1094.97" gradientUnits="userSpaceOnUse">
<stop stop-color="#8F92B9"/>
<stop offset="1" stop-color="#595D8A"/>
</linearGradient>
<linearGradient id="paint17_linear_927_133" x1="1795.07" y1="1001.17" x2="1773.4" y2="1034.27" gradientUnits="userSpaceOnUse">
<stop stop-color="#696B85"/>
<stop offset="1" stop-color="#4B4D67"/>
</linearGradient>
<linearGradient id="paint18_linear_927_133" x1="1749.41" y1="1002.15" x2="1750.43" y2="1049.92" gradientUnits="userSpaceOnUse">
<stop stop-color="#696B85"/>
<stop offset="1" stop-color="#3D3E55"/>
</linearGradient>
<linearGradient id="paint19_linear_927_133" x1="125.837" y1="0" x2="125.837" y2="249.984" gradientUnits="userSpaceOnUse">
<stop stop-color="#D30D0D"/>
<stop offset="1" stop-color="#690505"/>
</linearGradient>
<linearGradient id="paint20_linear_927_133" x1="964.95" y1="134.703" x2="962.403" y2="247.374" gradientUnits="userSpaceOnUse">
<stop stop-color="#F5D7D7"/>
<stop offset="1" stop-color="#871C1C"/>
</linearGradient>
<linearGradient id="paint21_linear_927_133" x1="964.955" y1="125.551" x2="962.407" y2="238.222" gradientUnits="userSpaceOnUse">
<stop stop-color="#950E0E"/>
<stop offset="1" stop-color="#871C1C"/>
</linearGradient>
<linearGradient id="paint22_linear_927_133" x1="124.917" y1="0" x2="124.917" y2="248.156" gradientUnits="userSpaceOnUse">
<stop stop-color="#9D11B4"/>
<stop offset="1" stop-color="#400B48"/>
</linearGradient>
<linearGradient id="paint23_linear_927_133" x1="314.513" y1="981.701" x2="388.947" y2="1082.05" gradientUnits="userSpaceOnUse">
<stop stop-color="#9316A7"/>
<stop offset="1" stop-color="#2F0C35"/>
</linearGradient>
<clipPath id="clip0_927_133">
<rect width="91.3676" height="148.89" fill="white" transform="translate(1725.4 947.614) rotate(-1.22962)"/>
</clipPath>
</defs>
</svg>
