<svg width="2610" height="2496" viewBox="0 0 2610 2496" fill="none" xmlns="http://www.w3.org/2000/svg">
<ellipse cx="1235.34" cy="1959.41" rx="224.864" ry="222.6" transform="rotate(-45.6327 1235.34 1959.41)" fill="#AF6725" fill-opacity="0.06"/>
<ellipse cx="1235.34" cy="1959.41" rx="205.143" ry="203.067" transform="rotate(-45.6327 1235.34 1959.41)" fill="#775333" fill-opacity="0.13"/>
<mask id="mask0_914_372" style="mask-type:alpha" maskUnits="userSpaceOnUse" x="1052" y="1776" width="367" height="367">
<circle r="183.156" transform="matrix(-0.699255 0.714872 0.714872 0.699255 1235.34 1959.41)" fill="#9B6432"/>
</mask>
<g mask="url(#mask0_914_372)">
<circle r="183.156" transform="matrix(-0.699255 0.714872 0.714872 0.699255 1235.34 1959.41)" fill="url(#paint0_linear_914_372)"/>
<path d="M1024.31 1901.19C1037.67 1875.38 1135.41 1773.3 1199.98 1820.14C1253.34 1858.86 1259.21 1870.21 1335.56 1858.86C1374.84 1853.01 1355.73 1852.66 1417.52 1858.86C1467.06 1877.96 1496.32 1923.75 1507.15 1928.29C1517.97 1932.83 1495.14 1950.66 1482.38 1959C1459.57 1930.7 1398.27 1879.51 1335.56 1901.19C1245.48 1913.58 1219.13 1901.19 1156.06 1877.96C1087.37 1858.86 1087.37 1901.19 1087.37 1901.19C1036.71 1904.16 1020.47 1919.48 1017.51 1923.05C1016.86 1924.12 1016.74 1923.98 1017.51 1923.05C1018.73 1921.04 1021.83 1914.69 1024.31 1901.19Z" fill="#BEBEBE" fill-opacity="0.1"/>
<path d="M1483.81 1957.6C1481.58 1994.08 1430.08 2152.19 1349.63 2113.37C1283.13 2081.28 1272.93 2068.85 1204.92 2106.63C1169.93 2126.06 1188.24 2120.62 1126.95 2131.9C1072.06 2123.23 1025.62 2074.84 1013.48 2072.49C1001.33 2070.13 1015.81 2040.74 1024.56 2026.34C1057.76 2054.8 1136.87 2100.08 1187.72 2053.56C1268.38 2010.25 1298.48 2017.66 1367.91 2027.34C1441.01 2030.11 1423.81 1977.04 1423.81 1977.04C1470.8 1957.7 1480.03 1933.49 1481.39 1928.09C1481.57 1926.55 1481.75 1926.69 1481.39 1928.09C1481.05 1930.99 1480.68 1939.9 1483.81 1957.6Z" fill="#BEBEBE" fill-opacity="0.1"/>
</g>
<path d="M1260.39 2006.14L1267.96 2015.97C1268.8 2017.05 1270.36 2017.25 1271.45 2016.42L1279.33 2010.34C1279.85 2009.94 1280.19 2009.35 1280.28 2008.69C1280.36 2008.04 1280.18 2007.38 1279.78 2006.86L1272.21 1997.03L1276.15 1993.99L1283.72 2003.82C1284.56 2004.91 1286.12 2005.11 1287.21 2004.27L1295.09 1998.2C1295.61 1997.8 1295.95 1997.2 1296.03 1996.55C1296.12 1995.9 1295.94 1995.24 1295.54 1994.71L1287.97 1984.89L1288.63 1984.38C1304.32 1972.28 1309.28 1955.51 1298.45 1941.46C1289.35 1929.65 1276.44 1929.31 1266.44 1935.55L1265.91 1934.86C1272.09 1927.06 1273.27 1916.98 1265.9 1907.42C1256.61 1895.37 1241.92 1895.04 1228.09 1905.7L1227.36 1906.26L1219.79 1896.43C1219.39 1895.91 1218.8 1895.57 1218.14 1895.48C1217.49 1895.4 1216.83 1895.58 1216.3 1895.98L1208.43 1902.05C1207.9 1902.46 1207.56 1903.05 1207.48 1903.7C1207.39 1904.36 1207.57 1905.02 1207.97 1905.54L1215.55 1915.37L1211.03 1918.85L1203.46 1909.02C1203.05 1908.5 1202.46 1908.16 1201.81 1908.07C1201.15 1907.99 1200.49 1908.17 1199.97 1908.57L1192.67 1914.2C1192.14 1914.6 1191.8 1915.2 1191.72 1915.85C1191.63 1916.5 1191.81 1917.16 1192.21 1917.68L1199.79 1927.51L1184.11 1939.73C1183.59 1940.13 1183.25 1940.73 1183.16 1941.38C1183.08 1942.03 1183.25 1942.69 1183.66 1943.22L1189.65 1950.99C1190.48 1952.07 1192.03 1952.29 1193.12 1951.45L1199.04 1946.83C1200.61 1945.64 1202.58 1945.11 1204.53 1945.37C1206.48 1945.62 1208.25 1946.64 1209.45 1948.2L1242.81 1991.49C1244.02 1993.05 1244.55 1995.03 1244.3 1996.99C1244.04 1998.95 1243.02 2000.73 1241.45 2001.94L1235.62 2006.57C1235.1 2006.97 1234.76 2007.56 1234.67 2008.22C1234.59 2008.87 1234.76 2009.53 1235.17 2010.05L1241.23 2017.91C1242.06 2019 1243.62 2019.2 1244.71 2018.36L1260.39 2006.14ZM1220.04 1930.54L1233.59 1920.1C1240.73 1914.6 1247.94 1915.28 1252.87 1921.68C1258.15 1928.53 1256.59 1935.88 1246.33 1943.79L1236.25 1951.56L1220.04 1930.54ZM1244.59 1962.39L1259.09 1951.22C1268.05 1944.31 1276.44 1945.11 1282.16 1952.54C1287.94 1960.03 1286.02 1967.74 1273.94 1977.04L1262.61 1985.77L1244.6 1962.4L1244.59 1962.39Z" fill="#FFF4CB"/>
<path d="M1275.43 2007.01L1283.92 2018.03C1284.86 2019.24 1286.61 2019.47 1287.83 2018.53L1296.66 2011.72C1297.25 2011.27 1297.63 2010.61 1297.73 2009.87C1297.82 2009.14 1297.62 2008.4 1297.17 2007.82L1288.68 1996.8L1293.1 1993.39L1301.59 2004.41C1302.53 2005.63 1304.28 2005.85 1305.5 2004.91L1314.33 1998.11C1314.92 1997.66 1315.3 1996.99 1315.39 1996.26C1315.49 1995.53 1315.29 1994.79 1314.84 1994.2L1306.34 1983.18L1307.09 1982.61C1324.68 1969.05 1330.24 1950.24 1318.1 1934.49C1307.89 1921.25 1293.42 1920.86 1282.21 1927.86L1281.61 1927.08C1288.53 1918.35 1289.86 1907.04 1281.6 1896.32C1271.19 1882.81 1254.71 1882.44 1239.21 1894.39L1238.39 1895.01L1229.9 1883.99C1229.45 1883.41 1228.78 1883.03 1228.05 1882.93C1227.32 1882.84 1226.58 1883.04 1225.99 1883.49L1217.16 1890.3C1216.57 1890.75 1216.19 1891.41 1216.1 1892.15C1216 1892.88 1216.2 1893.62 1216.65 1894.2L1225.14 1905.23L1220.08 1909.13L1211.59 1898.11C1211.14 1897.52 1210.47 1897.14 1209.74 1897.05C1209.01 1896.95 1208.27 1897.15 1207.68 1897.6L1199.49 1903.91C1198.91 1904.37 1198.52 1905.03 1198.43 1905.76C1198.33 1906.5 1198.53 1907.24 1198.98 1907.82L1207.48 1918.84L1189.9 1932.54C1189.32 1932.99 1188.94 1933.66 1188.84 1934.39C1188.74 1935.12 1188.94 1935.86 1189.39 1936.45L1196.11 1945.17C1197.05 1946.37 1198.78 1946.62 1200 1945.68L1206.64 1940.5C1208.4 1939.16 1210.61 1938.57 1212.8 1938.86C1214.99 1939.15 1216.97 1940.29 1218.32 1942.04L1255.72 1990.57C1257.08 1992.33 1257.67 1994.55 1257.39 1996.74C1257.1 1998.94 1255.95 2000.94 1254.19 2002.29L1247.66 2007.48C1247.08 2007.93 1246.69 2008.6 1246.6 2009.33C1246.5 2010.06 1246.7 2010.8 1247.15 2011.39L1253.95 2020.2C1254.89 2021.42 1256.64 2021.65 1257.86 2020.71L1275.43 2007.01ZM1230.19 1922.24L1245.37 1910.53C1253.37 1904.37 1261.46 1905.13 1266.99 1912.31C1272.91 1919.99 1271.16 1928.23 1259.66 1937.1L1248.36 1945.81L1230.19 1922.24ZM1257.71 1957.95L1273.97 1945.43C1284.01 1937.69 1293.42 1938.59 1299.83 1946.91C1306.31 1955.31 1304.16 1963.95 1290.62 1974.38L1277.92 1984.17L1257.72 1957.96L1257.71 1957.95Z" fill="url(#paint1_linear_914_372)"/>
<ellipse cx="779.024" cy="1273.06" rx="153.338" ry="150.798" transform="rotate(-45.6327 779.024 1273.06)" fill="#9926AC" fill-opacity="0.19"/>
<ellipse cx="779.024" cy="1273.06" rx="139.97" ry="137.563" transform="rotate(-45.6327 779.024 1273.06)" fill="#9328A4" fill-opacity="0.22"/>
<mask id="mask1_914_372" style="mask-type:alpha" maskUnits="userSpaceOnUse" x="654" y="1148" width="250" height="250">
<ellipse rx="124.917" ry="124.078" transform="matrix(-0.699255 0.714872 0.714872 0.699255 779.041 1273.05)" fill="#9B6432"/>
</mask>
<g mask="url(#mask1_914_372)">
<ellipse rx="124.917" ry="124.078" transform="matrix(-0.699255 0.714872 0.714872 0.699255 779.041 1273.05)" fill="url(#paint2_linear_914_372)"/>
<path d="M976.5 1246.74C974.276 1283.22 922.777 1441.33 842.32 1402.51C775.824 1370.43 765.622 1358 697.611 1395.78C662.619 1415.21 680.937 1409.76 619.64 1421.05C564.757 1412.37 518.318 1363.99 506.173 1361.63C494.028 1359.28 508.5 1329.89 517.254 1315.49C550.454 1343.94 629.565 1389.22 680.411 1342.71C761.071 1299.4 791.17 1306.81 860.605 1316.49C933.706 1319.26 916.507 1266.19 916.507 1266.19C963.493 1246.85 972.719 1222.63 974.086 1217.23C974.267 1215.7 974.44 1215.84 974.086 1217.23C973.743 1220.14 973.373 1229.05 976.5 1246.74Z" fill="#BEBEBE" fill-opacity="0.1"/>
<path d="M525.381 1287.59C532.253 1251.69 603.552 1101.47 678.382 1150.26C740.229 1190.59 748.757 1204.22 821.041 1175.45C858.232 1160.65 839.368 1163.72 901.605 1160.36C954.927 1175.99 994.797 1229.91 1006.54 1233.8C1018.28 1237.69 1000.17 1264.99 989.648 1278.15C960.36 1245.68 887.69 1190.66 831.312 1230.29C745.776 1262.92 716.871 1251.72 649.245 1233.24C577.098 1221.15 587.369 1275.98 587.369 1275.98C538.294 1289.15 526.047 1311.99 524.001 1317.17C523.625 1318.67 523.471 1318.51 524.001 1317.17C524.713 1314.33 526.219 1305.54 525.381 1287.59Z" fill="#BEBEBE" fill-opacity="0.1"/>
</g>
<path d="M802.46 1280.86L811.432 1260.13L815.67 1261.94L810.452 1274L808.863 1277.67L812.541 1279.24L818.447 1281.76L817.443 1284.08L811.537 1281.56L807.859 1279.99L806.27 1283.66L801.052 1295.71L797.203 1294.06L775.448 1256.71L771.459 1249.86L768.304 1257.15L759.336 1277.87L755.093 1276.06L760.309 1264.01L761.898 1260.34L758.22 1258.76L752.276 1256.22L753.28 1253.9L759.229 1256.45L762.907 1258.02L764.496 1254.35L769.712 1242.3L773.561 1243.94L795.316 1281.3L799.305 1288.14L802.46 1280.86ZM762.032 1322.95C732.401 1310.28 718.735 1275.78 731.62 1246.02C744.506 1216.25 779.107 1202.39 808.739 1215.06C838.37 1227.72 852.036 1262.22 839.151 1291.99C826.265 1321.76 791.664 1335.62 762.032 1322.95ZM762.97 1320.79C791.471 1332.97 824.673 1319.63 837.029 1291.08C849.385 1262.54 836.302 1229.41 807.801 1217.22C779.3 1205.04 746.098 1218.38 733.742 1246.92C721.386 1275.47 734.468 1308.6 762.97 1320.79Z" fill="#B591BA" stroke="#CEAAD3" stroke-width="8"/>
<path d="M803.118 1273.03L812.089 1252.3L816.328 1254.12L811.109 1266.17L809.52 1269.84L813.198 1271.41L819.104 1273.94L818.1 1276.26L812.194 1273.73L808.516 1272.16L806.927 1275.83L801.709 1287.88L797.861 1286.24L776.105 1248.89L772.116 1242.04L768.961 1249.33L759.993 1270.04L755.75 1268.23L760.966 1256.18L762.555 1252.51L758.877 1250.94L752.934 1248.4L753.938 1246.08L759.886 1248.62L763.564 1250.19L765.153 1246.52L770.369 1234.47L774.218 1236.12L795.973 1273.47L799.962 1280.32L803.118 1273.03ZM762.69 1315.13C733.058 1302.46 719.392 1267.96 732.277 1238.19C745.163 1208.42 779.764 1194.56 809.396 1207.23C839.027 1219.9 852.694 1254.4 839.808 1284.16C826.923 1313.93 792.321 1327.79 762.69 1315.13ZM763.627 1312.96C792.128 1325.14 825.33 1311.8 837.686 1283.26C850.042 1254.71 836.96 1221.58 808.458 1209.39C779.957 1197.21 746.756 1210.56 734.4 1239.1C722.044 1267.64 735.126 1300.77 763.627 1312.96Z" fill="url(#paint3_linear_914_372)" stroke="#3E0947" stroke-width="8"/>
<ellipse cx="1239.63" cy="630.715" rx="154.468" ry="151.909" transform="rotate(-45.6327 1239.63 630.715)" fill="#AC2626" fill-opacity="0.17"/>
<ellipse cx="1239.63" cy="630.715" rx="141.001" ry="138.577" transform="rotate(-45.6327 1239.63 630.715)" fill="#A42828" fill-opacity="0.24"/>
<mask id="mask2_914_372" style="mask-type:alpha" maskUnits="userSpaceOnUse" x="1114" y="505" width="252" height="252">
<ellipse rx="125.837" ry="124.992" transform="matrix(-0.699255 0.714872 0.714872 0.699255 1239.74 630.644)" fill="#9B6432"/>
</mask>
<g mask="url(#mask2_914_372)">
<ellipse rx="125.837" ry="124.992" transform="matrix(-0.699255 0.714872 0.714872 0.699255 1239.74 630.644)" fill="url(#paint4_linear_914_372)"/>
<path d="M1017.82 645.119C1024.69 609.224 1095.99 459 1170.82 507.793C1232.66 548.12 1241.19 561.75 1313.48 532.983C1350.67 518.182 1331.8 521.244 1394.04 517.893C1447.36 533.515 1487.23 587.441 1498.98 591.332C1510.72 595.224 1492.61 622.518 1482.08 635.679C1452.8 603.212 1380.13 548.185 1323.75 587.816C1238.21 620.449 1209.31 609.251 1141.68 590.771C1069.53 578.675 1079.8 633.508 1079.8 633.508C1030.73 646.681 1018.48 669.515 1016.44 674.697C1016.06 676.197 1015.91 676.038 1016.44 674.697C1017.15 671.856 1018.65 663.071 1017.82 645.119Z" fill="#BEBEBE" fill-opacity="0.1"/>
<path d="M1017.82 761.119C1024.69 725.224 1095.99 575 1170.82 623.793C1232.66 664.12 1241.19 677.75 1313.48 648.983C1350.67 634.182 1331.8 637.244 1394.04 633.893C1447.36 649.515 1487.23 703.441 1498.98 707.332C1510.72 711.224 1492.61 738.518 1482.08 751.679C1452.8 719.212 1380.13 664.185 1323.75 703.816C1238.21 736.449 1209.31 725.251 1141.68 706.771C1069.53 694.675 1079.8 749.508 1079.8 749.508C1030.73 762.681 1018.48 785.515 1016.44 790.697C1016.06 792.197 1015.91 792.038 1016.44 790.697C1017.15 787.856 1018.65 779.071 1017.82 761.119Z" fill="#BEBEBE" fill-opacity="0.1"/>
</g>
<path d="M1265.98 630.178L1284.14 634.78L1268.01 683.038L1218.87 670.572L1224.83 652.741L1255.87 660.7L1265.98 630.178ZM1276.16 599.75L1294.42 604.299L1288.46 622.121L1270.3 617.518L1276.16 599.75ZM1235 622.315L1253.1 626.821L1247.14 644.652L1229.04 640.142L1235 622.321L1235 622.315ZM1193.84 644.882L1211.89 649.541L1205.98 667.208L1187.88 662.707L1193.84 644.882ZM1214.19 584.018L1263.28 596.393L1257.31 614.216L1226.33 606.355L1216.21 636.878L1198.05 632.275L1214.19 584.024L1214.19 584.018Z" fill="url(#paint5_linear_914_372)"/>
<path d="M1261.41 622.251L1279.57 626.854L1263.43 675.111L1214.29 662.645L1220.25 644.814L1251.29 652.773L1261.41 622.251ZM1271.59 591.823L1289.84 596.372L1283.89 614.194L1265.73 609.592L1271.59 591.823ZM1230.43 614.388L1248.53 618.894L1242.56 636.726L1224.46 632.215L1230.42 614.395L1230.43 614.388ZM1189.26 636.956L1207.32 641.614L1201.41 659.282L1183.3 654.781L1189.26 636.956ZM1209.61 576.091L1258.7 588.466L1252.74 606.289L1221.75 598.428L1211.63 628.951L1193.48 624.348L1209.61 576.098L1209.61 576.091Z" fill="url(#paint6_linear_914_372)"/>
<ellipse cx="1865" cy="1057.83" rx="176.872" ry="175.09" transform="rotate(-45.6327 1865 1057.83)" fill="#211B5D" fill-opacity="0.33"/>
<ellipse cx="1865" cy="1057.83" rx="161.359" ry="159.726" transform="rotate(-45.6327 1865 1057.83)" fill="#211B5D" fill-opacity="0.13"/>
<mask id="mask3_914_372" style="mask-type:alpha" maskUnits="userSpaceOnUse" x="1720" y="913" width="290" height="289">
<circle r="144.065" transform="matrix(-0.699255 0.714872 0.714872 0.699255 1865 1057.83)" fill="#9B6432"/>
</mask>
<g mask="url(#mask3_914_372)">
<circle r="144.065" transform="matrix(-0.699255 0.714872 0.714872 0.699255 1865 1057.83)" fill="url(#paint7_linear_914_372)"/>
<path d="M1691.32 1001.27C1701.05 982.637 1772.22 908.95 1819.24 942.765C1858.1 970.713 1862.37 978.911 1917.97 970.713C1946.57 966.495 1932.66 966.241 1977.65 970.713C2013.72 984.5 2035.03 1017.55 2042.91 1020.83C2050.8 1024.11 2034.18 1036.98 2024.88 1043C2008.27 1022.57 1963.63 985.618 1917.97 1001.27C1852.37 1010.21 1833.18 1001.27 1787.26 984.5C1737.24 970.713 1737.24 1001.27 1737.24 1001.27C1700.35 1003.41 1688.52 1014.47 1686.36 1017.05C1685.89 1017.82 1685.8 1017.72 1686.36 1017.05C1687.25 1015.6 1689.51 1011.02 1691.32 1001.27Z" fill="#BEBEBE" fill-opacity="0.15"/>
<path d="M1691.32 1174.19C1701.05 1148.38 1772.22 1046.3 1819.24 1093.14C1858.1 1131.86 1862.37 1143.21 1917.97 1131.86C1946.57 1126.01 1932.66 1125.66 1977.65 1131.86C2013.72 1150.96 2035.03 1196.75 2042.91 1201.29C2050.8 1205.83 2034.18 1223.66 2024.88 1232C2008.27 1203.7 1963.63 1152.51 1917.97 1174.19C1852.37 1186.58 1833.18 1174.19 1787.26 1150.96C1737.24 1131.86 1737.24 1174.19 1737.24 1174.19C1700.35 1177.16 1688.52 1192.48 1686.36 1196.05C1685.89 1197.12 1685.8 1196.98 1686.36 1196.05C1687.25 1194.04 1689.51 1187.69 1691.32 1174.19Z" fill="#BEBEBE" fill-opacity="0.1"/>
</g>
<g clip-path="url(#clip0_914_372)">
<path d="M1826.85 993.693L1827.76 997.111L1878.83 1081.25L1880.2 1081.58L1905.23 1034.8L1826.85 993.693Z" fill="url(#paint8_linear_914_372)"/>
<path d="M1826.85 993.693L1827.14 1082.2L1880.2 1081.58L1855.41 1040.75L1826.85 993.693Z" fill="#DDDFF9"/>
<path d="M1884.69 1088.98L1884.56 1089.86L1902.76 1119.83L1904.09 1120.94L1909.75 1042.19L1884.69 1088.98Z" fill="url(#paint9_linear_914_372)"/>
<path d="M1904.09 1120.94L1884.69 1088.98L1831.64 1089.6L1904.09 1120.94Z" fill="#DDDFF9"/>
<path d="M1880.2 1081.58L1905.23 1034.8L1855.41 1040.75L1880.2 1081.58Z" fill="url(#paint10_linear_914_372)"/>
<path d="M1827.14 1082.2L1880.2 1081.58L1855.41 1040.75L1827.14 1082.2Z" fill="url(#paint11_linear_914_372)"/>
</g>
<circle cx="1270.2" cy="1139.2" r="68.7354" transform="rotate(-45.6327 1270.2 1139.2)" fill="url(#paint12_radial_914_372)"/>
<ellipse cx="1270.2" cy="1139.2" rx="11.3091" ry="27.163" transform="rotate(-45.6327 1270.2 1139.2)" fill="url(#paint13_linear_914_372)"/>
<path d="M1273.03 1136.31C1278.37 1141.53 1282.57 1146.88 1285.05 1151.29C1286.29 1153.5 1287.09 1155.44 1287.39 1157.01C1287.7 1158.59 1287.49 1159.66 1286.9 1160.26C1286.31 1160.87 1285.25 1161.11 1283.66 1160.83C1282.08 1160.56 1280.12 1159.81 1277.88 1158.61C1273.42 1156.23 1267.98 1152.15 1262.64 1146.93C1257.3 1141.71 1253.1 1136.36 1250.62 1131.95C1249.38 1129.74 1248.58 1127.79 1248.28 1126.23C1247.97 1124.64 1248.18 1123.58 1248.78 1122.97C1249.37 1122.37 1250.43 1122.13 1252.02 1122.4C1253.59 1122.67 1255.55 1123.43 1257.79 1124.62C1262.25 1127.01 1267.69 1131.09 1273.03 1136.31Z" fill="url(#paint14_linear_914_372)" stroke="black"/>
<circle cx="1704.61" cy="1503.74" r="78.5983" transform="rotate(-45.6327 1704.61 1503.74)" fill="url(#paint15_radial_914_372)"/>
<ellipse cx="1704.61" cy="1503.74" rx="12.9319" ry="31.0606" transform="rotate(-45.6327 1704.61 1503.74)" fill="url(#paint16_linear_914_372)"/>
<path d="M1707.89 1500.38C1714 1506.36 1718.81 1512.47 1721.65 1517.53C1723.08 1520.05 1723.99 1522.29 1724.34 1524.09C1724.7 1525.91 1724.45 1527.16 1723.75 1527.87C1723.05 1528.59 1721.81 1528.86 1719.98 1528.55C1718.17 1528.24 1715.92 1527.37 1713.36 1526C1708.25 1523.27 1702.02 1518.6 1695.92 1512.63C1689.81 1506.65 1685 1500.54 1682.16 1495.48C1680.74 1492.96 1679.82 1490.72 1679.47 1488.92C1679.12 1487.1 1679.36 1485.85 1680.06 1485.14C1680.76 1484.42 1682 1484.15 1683.83 1484.46C1685.64 1484.77 1687.89 1485.64 1690.45 1487.01C1695.56 1489.74 1701.79 1494.41 1707.89 1500.38Z" fill="url(#paint17_linear_914_372)" stroke="black"/>
<circle cx="1698.25" cy="469.882" r="43.8747" transform="rotate(-45.6327 1698.25 469.882)" fill="url(#paint18_radial_914_372)"/>
<ellipse cx="1698.25" cy="469.882" rx="7.21875" ry="17.3385" transform="rotate(-45.6327 1698.25 469.882)" fill="url(#paint19_linear_914_372)"/>
<path d="M1699.93 468.165C1703.33 471.49 1706 474.888 1707.57 477.685C1708.36 479.087 1708.86 480.311 1709.05 481.284C1709.24 482.275 1709.09 482.878 1708.78 483.199C1708.46 483.521 1707.87 483.683 1706.87 483.511C1705.89 483.343 1704.66 482.872 1703.24 482.114C1700.41 480.603 1696.95 478.009 1693.55 474.685C1690.15 471.36 1687.49 467.961 1685.91 465.164C1685.12 463.763 1684.62 462.538 1684.43 461.566C1684.24 460.575 1684.39 459.972 1684.7 459.65C1685.02 459.329 1685.62 459.167 1686.61 459.338C1687.59 459.506 1688.83 459.978 1690.24 460.735C1693.07 462.247 1696.53 464.841 1699.93 468.165Z" fill="url(#paint20_linear_914_372)" stroke="black"/>
<circle cx="954.647" cy="2015.56" r="43.8747" transform="rotate(-45.6327 954.647 2015.56)" fill="url(#paint21_radial_914_372)"/>
<ellipse cx="954.647" cy="2015.56" rx="7.21875" ry="17.3385" transform="rotate(-45.6327 954.647 2015.56)" fill="url(#paint22_linear_914_372)"/>
<path d="M956.326 2013.84C959.724 2017.17 962.394 2020.57 963.968 2023.36C964.756 2024.76 965.255 2025.99 965.444 2026.96C965.637 2027.95 965.489 2028.55 965.174 2028.88C964.86 2029.2 964.26 2029.36 963.265 2029.19C962.289 2029.02 961.054 2028.55 959.635 2027.79C956.804 2026.28 953.347 2023.69 949.949 2020.36C946.55 2017.04 943.88 2013.64 942.307 2010.84C941.518 2009.44 941.019 2008.22 940.83 2007.24C940.637 2006.25 940.785 2005.65 941.1 2005.33C941.414 2005.01 942.014 2004.84 943.009 2005.02C943.985 2005.18 945.22 2005.65 946.639 2006.41C949.47 2007.92 952.927 2010.52 956.326 2013.84Z" fill="url(#paint23_linear_914_372)" stroke="black"/>
<circle cx="647.366" cy="1663.04" r="33.1475" transform="rotate(-45.6327 647.366 1663.04)" fill="url(#paint24_radial_914_372)"/>
<ellipse cx="647.365" cy="1663.04" rx="5.4538" ry="13.0993" transform="rotate(-45.6327 647.365 1663.04)" fill="url(#paint25_linear_914_372)"/>
<path d="M648.548 1661.83C651.11 1664.34 653.119 1666.9 654.301 1669C654.893 1670.05 655.263 1670.96 655.403 1671.68C655.546 1672.42 655.427 1672.82 655.232 1673.02C655.037 1673.22 654.636 1673.35 653.898 1673.22C653.178 1673.1 652.258 1672.75 651.192 1672.18C649.066 1671.04 646.463 1669.09 643.901 1666.58C641.34 1664.08 639.331 1661.52 638.149 1659.42C637.556 1658.37 637.186 1657.45 637.047 1656.74C636.903 1656 637.023 1655.6 637.218 1655.4C637.413 1655.2 637.814 1655.07 638.552 1655.2C639.272 1655.32 640.192 1655.67 641.258 1656.24C643.384 1657.38 645.987 1659.33 648.548 1661.83Z" fill="url(#paint26_linear_914_372)" stroke="black"/>
<path d="M1779.97 497.945C1894.92 573.078 1945.16 723.632 1933.32 906.476C1921.48 1089.3 1847.57 1304.29 1714.36 1508.1C1581.15 1711.9 1413.9 1865.89 1251.2 1950.11C1088.48 2034.34 930.414 2048.74 815.463 1973.61C700.513 1898.48 650.269 1747.92 662.111 1565.08C673.951 1382.25 747.866 1167.26 881.073 963.458C1014.28 759.654 1181.53 605.667 1344.24 521.446C1506.96 437.217 1665.02 422.812 1779.97 497.945Z" stroke="#FFFBFB"/>
<defs>
<linearGradient id="paint0_linear_914_372" x1="337.132" y1="274.892" x2="25.5464" y2="75.0273" gradientUnits="userSpaceOnUse">
<stop offset="0.151042" stop-color="#4E3622"/>
<stop offset="1" stop-color="#C47733"/>
</linearGradient>
<linearGradient id="paint1_linear_914_372" x1="1218.27" y1="1889.44" x2="1306.61" y2="2004.06" gradientUnits="userSpaceOnUse">
<stop stop-color="#6B4A2D"/>
<stop offset="1" stop-color="#211913"/>
</linearGradient>
<linearGradient id="paint2_linear_914_372" x1="124.917" y1="0" x2="124.917" y2="248.156" gradientUnits="userSpaceOnUse">
<stop stop-color="#9D11B4"/>
<stop offset="1" stop-color="#400B48"/>
</linearGradient>
<linearGradient id="paint3_linear_914_372" x1="728.599" y1="1236.62" x2="843.262" y2="1286.25" gradientUnits="userSpaceOnUse">
<stop stop-color="#9316A7"/>
<stop offset="1" stop-color="#2F0C35"/>
</linearGradient>
<linearGradient id="paint4_linear_914_372" x1="125.837" y1="0" x2="125.837" y2="249.984" gradientUnits="userSpaceOnUse">
<stop stop-color="#D30D0D"/>
<stop offset="1" stop-color="#690505"/>
</linearGradient>
<linearGradient id="paint5_linear_914_372" x1="1214.23" y1="583.993" x2="1268.41" y2="682.816" gradientUnits="userSpaceOnUse">
<stop stop-color="#F5D7D7"/>
<stop offset="1" stop-color="#871C1C"/>
</linearGradient>
<linearGradient id="paint6_linear_914_372" x1="1209.66" y1="576.067" x2="1263.83" y2="674.89" gradientUnits="userSpaceOnUse">
<stop stop-color="#950E0E"/>
<stop offset="1" stop-color="#871C1C"/>
</linearGradient>
<linearGradient id="paint7_linear_914_372" x1="91.0285" y1="3.33016" x2="208.044" y2="289.848" gradientUnits="userSpaceOnUse">
<stop stop-color="#271B9B"/>
<stop offset="1" stop-color="#0F0B3A"/>
</linearGradient>
<linearGradient id="paint8_linear_914_372" x1="1845.94" y1="982.103" x2="1899.29" y2="1069.99" gradientUnits="userSpaceOnUse">
<stop offset="0.333333" stop-color="#8689B0"/>
<stop offset="1" stop-color="#61648E"/>
</linearGradient>
<linearGradient id="paint9_linear_914_372" x1="1889.97" y1="1054.19" x2="1923.38" y2="1109.23" gradientUnits="userSpaceOnUse">
<stop stop-color="#8F92B9"/>
<stop offset="1" stop-color="#595D8A"/>
</linearGradient>
<linearGradient id="paint10_linear_914_372" x1="1874.93" y1="1028.9" x2="1872.73" y2="1068.4" gradientUnits="userSpaceOnUse">
<stop stop-color="#696B85"/>
<stop offset="1" stop-color="#4B4D67"/>
</linearGradient>
<linearGradient id="paint11_linear_914_372" x1="1835.89" y1="1052.59" x2="1860.68" y2="1093.43" gradientUnits="userSpaceOnUse">
<stop stop-color="#696B85"/>
<stop offset="1" stop-color="#3D3E55"/>
</linearGradient>
<radialGradient id="paint12_radial_914_372" cx="0" cy="0" r="1" gradientUnits="userSpaceOnUse" gradientTransform="translate(1251.07 1090.26) rotate(80.7659) scale(119.216)">
<stop stop-color="#464662"/>
<stop offset="1" stop-color="#090826"/>
</radialGradient>
<linearGradient id="paint13_linear_914_372" x1="1270.2" y1="1112.04" x2="1270.2" y2="1166.36" gradientUnits="userSpaceOnUse">
<stop stop-color="white"/>
<stop offset="1" stop-color="#B7B7CB" stop-opacity="0"/>
</linearGradient>
<linearGradient id="paint14_linear_914_372" x1="1248.42" y1="1122.62" x2="1287.25" y2="1160.61" gradientUnits="userSpaceOnUse">
<stop stop-color="white"/>
<stop offset="1" stop-color="#B7B7CB" stop-opacity="0"/>
</linearGradient>
<radialGradient id="paint15_radial_914_372" cx="0" cy="0" r="1" gradientUnits="userSpaceOnUse" gradientTransform="translate(1682.74 1447.78) rotate(80.7659) scale(136.322)">
<stop stop-color="#464662"/>
<stop offset="1" stop-color="#090826"/>
</radialGradient>
<linearGradient id="paint16_linear_914_372" x1="1704.61" y1="1472.68" x2="1704.61" y2="1534.8" gradientUnits="userSpaceOnUse">
<stop stop-color="white"/>
<stop offset="1" stop-color="#B7B7CB" stop-opacity="0"/>
</linearGradient>
<linearGradient id="paint17_linear_914_372" x1="1679.7" y1="1484.79" x2="1724.11" y2="1528.22" gradientUnits="userSpaceOnUse">
<stop stop-color="white"/>
<stop offset="1" stop-color="#B7B7CB" stop-opacity="0"/>
</linearGradient>
<radialGradient id="paint18_radial_914_372" cx="0" cy="0" r="1" gradientUnits="userSpaceOnUse" gradientTransform="translate(1686.04 438.645) rotate(80.7659) scale(76.0972)">
<stop stop-color="#464662"/>
<stop offset="1" stop-color="#090826"/>
</radialGradient>
<linearGradient id="paint19_linear_914_372" x1="1698.25" y1="452.543" x2="1698.25" y2="487.22" gradientUnits="userSpaceOnUse">
<stop stop-color="white"/>
<stop offset="1" stop-color="#B7B7CB" stop-opacity="0"/>
</linearGradient>
<linearGradient id="paint20_linear_914_372" x1="1684.35" y1="459.301" x2="1709.14" y2="483.549" gradientUnits="userSpaceOnUse">
<stop stop-color="white"/>
<stop offset="1" stop-color="#B7B7CB" stop-opacity="0"/>
</linearGradient>
<radialGradient id="paint21_radial_914_372" cx="0" cy="0" r="1" gradientUnits="userSpaceOnUse" gradientTransform="translate(942.436 1984.32) rotate(80.7659) scale(76.0972)">
<stop stop-color="#464662"/>
<stop offset="1" stop-color="#090826"/>
</radialGradient>
<linearGradient id="paint22_linear_914_372" x1="954.647" y1="1998.22" x2="954.647" y2="2032.9" gradientUnits="userSpaceOnUse">
<stop stop-color="white"/>
<stop offset="1" stop-color="#B7B7CB" stop-opacity="0"/>
</linearGradient>
<linearGradient id="paint23_linear_914_372" x1="940.742" y1="2004.98" x2="965.532" y2="2029.23" gradientUnits="userSpaceOnUse">
<stop stop-color="white"/>
<stop offset="1" stop-color="#B7B7CB" stop-opacity="0"/>
</linearGradient>
<radialGradient id="paint24_radial_914_372" cx="0" cy="0" r="1" gradientUnits="userSpaceOnUse" gradientTransform="translate(638.14 1639.44) rotate(80.7659) scale(57.4917)">
<stop stop-color="#464662"/>
<stop offset="1" stop-color="#090826"/>
</radialGradient>
<linearGradient id="paint25_linear_914_372" x1="647.365" y1="1649.94" x2="647.365" y2="1676.14" gradientUnits="userSpaceOnUse">
<stop stop-color="white"/>
<stop offset="1" stop-color="#B7B7CB" stop-opacity="0"/>
</linearGradient>
<linearGradient id="paint26_linear_914_372" x1="636.861" y1="1655.05" x2="655.589" y2="1673.37" gradientUnits="userSpaceOnUse">
<stop stop-color="white"/>
<stop offset="1" stop-color="#B7B7CB" stop-opacity="0"/>
</linearGradient>
<clipPath id="clip0_914_372">
<rect width="91.3676" height="148.89" fill="white" transform="translate(1787.81 1017.39) rotate(-31.2575)"/>
</clipPath>
</defs>
</svg>
