<svg width="99" height="18" viewBox="0 0 99 18" fill="none" xmlns="http://www.w3.org/2000/svg">
<path fill-rule="evenodd" clip-rule="evenodd" d="M10.9167 13.0135L9.56923 11.6801C9.05741 12.1467 8.54007 12.5163 8.01674 12.7886C7.49387 13.0607 6.86837 13.1967 6.14068 13.1967C5.57202 13.1967 5.04616 13.0886 4.56288 12.8718C4.0796 12.6551 3.66167 12.358 3.30911 11.9801C2.95654 11.6023 2.68383 11.1607 2.49029 10.6552C2.29697 10.1498 2.20055 9.60788 2.20055 9.03047C2.20055 8.4526 2.29697 7.91364 2.49029 7.41357C2.68383 6.91373 2.95654 6.47774 3.30911 6.10539C3.66167 5.73326 4.0796 5.43893 4.56288 5.22217C5.04616 5.00564 5.57202 4.89726 6.14068 4.89726C6.8228 4.89726 7.43128 5.0306 7.96565 5.29727C8.50025 5.56372 9.00632 5.91381 9.48362 6.3471L10.8313 4.83071C10.5471 4.56404 10.2458 4.31962 9.92732 4.09725C9.60904 3.87509 9.26223 3.6833 8.88688 3.5223C8.51153 3.36109 8.09936 3.23629 7.65014 3.14748C7.20091 3.05844 6.70336 3.01392 6.15771 3.01392C5.24799 3.01392 4.41789 3.17244 3.66743 3.48903C2.91673 3.80562 2.26867 4.2389 1.72279 4.78889C1.17691 5.33887 0.753461 5.98037 0.451984 6.71383C0.150508 7.44707 0 8.23045 0 9.06375C0 9.90806 0.1535 10.6968 0.460499 11.4303C0.767499 12.1633 1.19118 12.7994 1.7313 13.3384C2.27143 13.8771 2.91097 14.3021 3.65017 14.6133C4.38936 14.9245 5.1969 15.0798 6.07233 15.0798C6.62972 15.0798 7.13855 15.0326 7.59905 14.9382C8.05955 14.8438 8.48322 14.705 8.86985 14.5218C9.25648 14.3383 9.61756 14.1215 9.95309 13.8717C10.2884 13.6217 10.6097 13.3355 10.9167 13.0135Z" fill="white"/>
<path fill-rule="evenodd" clip-rule="evenodd" d="M37.9826 6.31727C37.9826 5.92917 38.1522 5.5994 38.4917 5.32796C38.8309 5.05606 39.306 4.92034 39.9167 4.92034C40.4596 4.92034 40.9968 5.02308 41.5282 5.22813C42.0599 5.43317 42.5971 5.72974 43.1398 6.11762L44.2595 4.57127C43.6491 4.09456 42.9958 3.73158 42.3003 3.48235C41.6045 3.23288 40.8215 3.10815 39.9506 3.10815C39.3626 3.10815 38.8197 3.18847 38.3248 3.34932C37.8272 3.50994 37.4033 3.73988 37.0497 4.03915C36.6963 4.33863 36.4191 4.696 36.2157 5.1117C36.0149 5.52739 35.9131 5.99019 35.9131 6.50011C35.9131 7.04322 36.0007 7.50334 36.1761 7.88022C36.3514 8.2571 36.6086 8.57858 36.9424 8.84464C37.2758 9.1107 37.6915 9.33234 38.1834 9.50979C38.6782 9.68724 39.241 9.84764 39.8771 9.99189C40.4314 10.1249 40.8807 10.2523 41.2286 10.3742C41.5736 10.4962 41.845 10.6265 42.0458 10.765C42.2435 10.9036 42.3795 11.0559 42.4529 11.2221C42.5264 11.3886 42.563 11.5768 42.563 11.7875C42.563 12.2422 42.3737 12.6025 41.9949 12.8683C41.6159 13.1346 41.1041 13.2674 40.4596 13.2674C39.7132 13.2674 39.0458 13.1371 38.4578 12.8766C37.8696 12.6162 37.2873 12.2422 36.7103 11.7543L35.4551 13.2176C36.1676 13.8493 36.9424 14.3178 37.7792 14.6226C38.6162 14.9275 39.4926 15.0798 40.4086 15.0798C41.0307 15.0798 41.6019 15.0022 42.1222 14.8472C42.6395 14.6917 43.0863 14.4645 43.4538 14.1652C43.8242 13.8659 44.1126 13.5003 44.3218 13.068C44.5282 12.6357 44.6328 12.1424 44.6328 11.588C44.6328 11.1003 44.5509 10.6763 44.3868 10.3161C44.2227 9.95577 43.9796 9.64013 43.663 9.36824C43.3463 9.09679 42.9448 8.86662 42.4641 8.67818C41.9837 8.48996 41.4294 8.31812 40.8073 8.16288C40.239 8.02985 39.7725 7.90221 39.4022 7.78039C39.0346 7.65858 38.7462 7.52555 38.534 7.3813C38.3248 7.23728 38.1808 7.08203 38.1014 6.9158C38.0225 6.74934 37.9826 6.54991 37.9826 6.31727Z" fill="white"/>
<path fill-rule="evenodd" clip-rule="evenodd" d="M61.2054 6.482V14.797H63.2781V3.20242H61.0522L57.4333 8.68507L53.8143 3.20242H51.5886V14.797H53.6614V6.51507L57.3821 11.9481H57.4502L61.2054 6.482Z" fill="white"/>
<path fill-rule="evenodd" clip-rule="evenodd" d="M80.6932 9.06373C80.6932 9.63035 80.5939 10.1664 80.3952 10.6721C80.1968 11.1776 79.9216 11.6162 79.5695 11.9884C79.2178 12.3605 78.7949 12.655 78.3013 12.8718C77.8074 13.0886 77.2655 13.1967 76.6754 13.1967C76.0851 13.1967 75.5402 13.0856 75.0408 12.8635C74.5415 12.6411 74.1128 12.3412 73.7554 11.9636C73.398 11.5857 73.1198 11.144 72.9211 10.6386C72.7227 10.1331 72.6232 9.59685 72.6232 9.03045C72.6232 8.4636 72.7227 7.92756 72.9211 7.42209C73.1198 6.91641 73.395 6.47772 73.7469 6.10537C74.0988 5.73324 74.5217 5.43891 75.0153 5.22216C75.509 5.00563 76.0511 4.89725 76.6412 4.89725C77.2315 4.89725 77.7764 5.00832 78.2758 5.2307C78.7749 5.45285 79.2035 5.7528 79.561 6.13055C79.9186 6.50808 80.1968 6.94991 80.3952 7.45537C80.5939 7.96084 80.6932 8.49711 80.6932 9.06373ZM82.8894 9.03047C82.8894 8.20819 82.7362 7.43043 82.4298 6.69697C82.1236 5.96396 81.6977 5.32493 81.1531 4.78057C80.6082 4.23598 79.9556 3.80562 79.1948 3.48903C78.4345 3.17244 77.5947 3.01392 76.6754 3.01392C75.7559 3.01392 74.9161 3.17513 74.1556 3.49734C73.395 3.81956 72.7367 4.25554 72.1806 4.80553C71.6242 5.35551 71.1933 5.99723 70.8866 6.73047C70.5802 7.46371 70.427 8.24147 70.427 9.06375C70.427 9.8858 70.5802 10.6633 70.8866 11.3968C71.1933 12.1303 71.6187 12.7691 72.1636 13.3134C72.7082 13.8578 73.361 14.2884 74.1216 14.605C74.8819 14.9216 75.7217 15.0798 76.6412 15.0798C77.5605 15.0798 78.4005 14.9186 79.1608 14.5966C79.9216 14.2744 80.5797 13.8384 81.1361 13.2882C81.6922 12.7385 82.1236 12.0968 82.4298 11.3635C82.7362 10.6303 82.8894 9.85252 82.8894 9.03047Z" fill="white"/>
<path fill-rule="evenodd" clip-rule="evenodd" d="M91.5998 6.31727C91.5998 5.92917 91.7694 5.5994 92.1086 5.32796C92.448 5.05606 92.923 4.92034 93.5339 4.92034C94.0765 4.92034 94.614 5.02308 95.1454 5.22813C95.6769 5.43317 96.2143 5.72974 96.7572 6.11762L97.8767 4.57127C97.266 4.09456 96.6128 3.73158 95.9172 3.48235C95.2219 3.23288 94.4386 3.10815 93.5677 3.10815C92.9797 3.10815 92.4368 3.18847 91.942 3.34932C91.4444 3.50994 91.0205 3.73988 90.6669 4.03915C90.3135 4.33863 90.0365 4.696 89.8326 5.1117C89.6321 5.52739 89.5303 5.99019 89.5303 6.50011C89.5303 7.04322 89.6179 7.50334 89.7932 7.88022C89.9686 8.2571 90.2258 8.57858 90.5593 8.84464C90.893 9.1107 91.3087 9.33234 91.8008 9.50979C92.2954 9.68724 92.8582 9.84764 93.4943 9.99189C94.0484 10.1249 94.4979 10.2523 94.8458 10.3742C95.1905 10.4962 95.4622 10.6265 95.6629 10.765C95.8607 10.9036 95.9966 11.0559 96.0701 11.2221C96.1436 11.3886 96.1804 11.5768 96.1804 11.7875C96.1804 12.2422 95.9907 12.6025 95.6121 12.8683C95.2331 13.1346 94.7213 13.2674 94.0765 13.2674C93.3302 13.2674 92.6627 13.1371 92.075 12.8766C91.487 12.6162 90.9045 12.2422 90.3275 11.7543L89.0723 13.2176C89.7845 13.8493 90.5593 14.3178 91.3963 14.6226C92.2331 14.9275 93.1095 15.0798 94.0257 15.0798C94.6478 15.0798 95.2189 15.0022 95.7394 14.8472C96.2566 14.6917 96.7034 14.4645 97.071 14.1652C97.4413 13.8659 97.7297 13.5003 97.9389 13.068C98.1452 12.6357 98.25 12.1424 98.25 11.588C98.25 11.1003 98.1678 10.6763 98.0039 10.3161C97.8398 9.95577 97.5968 9.64013 97.28 9.36824C96.9634 9.09679 96.562 8.86662 96.0813 8.67818C95.6007 8.48996 95.0463 8.31812 94.4244 8.16288C93.8561 8.02985 93.3897 7.90221 93.0193 7.78039C92.6518 7.65858 92.3634 7.52555 92.1512 7.3813C91.942 7.23728 91.7978 7.08203 91.7186 6.9158C91.6396 6.74934 91.5998 6.54991 91.5998 6.31727Z" fill="white"/>
<path fill-rule="evenodd" clip-rule="evenodd" d="M25.1357 5.52358L19.4562 11.0656C19.383 10.9269 19.3169 10.7824 19.2576 10.6326C19.0593 10.129 18.9601 9.5948 18.9601 9.03054C18.9601 8.46583 19.0593 7.93181 19.2576 7.42826C19.4562 6.92448 19.7312 6.48745 20.0829 6.11651C20.4346 5.74578 20.8573 5.45257 21.3506 5.23663C21.8442 5.02092 22.3857 4.91295 22.9755 4.91295C23.5655 4.91295 24.11 5.02361 24.6089 5.24514C24.7944 5.32735 24.97 5.42009 25.1357 5.52358ZM24.6346 12.8573C24.141 13.0733 23.5995 13.181 23.0097 13.181C22.4197 13.181 21.8752 13.0704 21.3761 12.849C21.1908 12.7666 21.0152 12.6739 20.8497 12.5702L26.529 7.02859C26.6022 7.16703 26.6683 7.31128 26.7276 7.46137C26.9259 7.96492 27.0251 8.49916 27.0251 9.06365C27.0251 9.62813 26.9259 10.1621 26.7276 10.6659C26.529 11.1695 26.254 11.6065 25.9023 11.9772C25.5506 12.348 25.1282 12.6414 24.6346 12.8573ZM25.4939 14.5757C26.254 14.2547 26.9119 13.8203 27.4677 13.2722C28.0235 12.7245 28.4544 12.0852 28.7606 11.3548C29.0671 10.6243 29.2202 9.84947 29.2202 9.03052C29.2202 8.21135 29.0671 7.43653 28.7606 6.70584C28.579 6.27262 28.3554 5.87255 28.09 5.50542L31.784 1.90101L30.3162 0.46875L26.6109 4.08413C26.2783 3.86282 25.9172 3.67152 25.5278 3.51001C24.7677 3.19462 23.9284 3.0367 23.0097 3.0367C22.0907 3.0367 21.2514 3.19731 20.4913 3.5183C19.7312 3.8393 19.0733 4.27363 18.5175 4.82154C17.9617 5.36945 17.5306 6.00875 17.2244 6.73921C16.9181 7.46968 16.765 8.2445 16.765 9.06367C16.765 9.88262 16.9181 10.6572 17.2244 11.3879C17.4062 11.8214 17.6298 12.2214 17.8952 12.5888L14.2014 16.1927L15.6693 17.625L19.3743 14.0098C19.7069 14.2312 20.068 14.4225 20.4574 14.584C21.2175 14.8994 22.0568 15.0571 22.9755 15.0571C23.8945 15.0571 24.7338 14.8964 25.4939 14.5757Z" fill="white"/>
</svg>
