<svg width="2077" height="2000" viewBox="0 0 2077 2000" fill="none" xmlns="http://www.w3.org/2000/svg">
<rect width="2077" height="2000" fill="#1A1A1A"/>
<circle cx="1023" cy="1007" r="660.5" stroke="#747474"/>
<circle cx="1022.5" cy="1001.5" r="530" stroke="#747474"/>
<circle cx="1031.63" cy="996.627" r="402.586" transform="rotate(-4.36978 1031.63 996.627)" stroke="#747474"/>
<circle cx="885.934" cy="1503.69" r="68.7354" transform="rotate(-15.6048 885.934 1503.69)" fill="url(#paint0_radial_912_167)"/>
<ellipse cx="885.934" cy="1503.69" rx="11.3091" ry="27.163" transform="rotate(-15.6048 885.934 1503.69)" fill="url(#paint1_linear_912_167)"/>
<path d="M889.83 1502.6C891.838 1509.8 892.8 1516.53 892.742 1521.59C892.712 1524.12 892.427 1526.21 891.908 1527.71C891.383 1529.24 890.663 1530.05 889.849 1530.28C889.034 1530.51 887.997 1530.19 886.757 1529.15C885.532 1528.13 884.207 1526.5 882.869 1524.34C880.197 1520.05 877.532 1513.79 875.523 1506.6C873.515 1499.41 872.552 1492.68 872.611 1487.62C872.64 1485.08 872.926 1483 873.445 1481.49C873.97 1479.96 874.69 1479.15 875.504 1478.92C876.319 1478.69 877.356 1479.02 878.596 1480.05C879.821 1481.07 881.146 1482.71 882.484 1484.86C885.156 1489.16 887.821 1495.41 889.83 1502.6Z" fill="url(#paint2_linear_912_167)" stroke="black"/>
<circle cx="1073.06" cy="809.06" r="43.8747" transform="rotate(-15.6048 1073.06 809.06)" fill="url(#paint3_radial_912_167)"/>
<ellipse cx="1073.06" cy="809.06" rx="7.21875" ry="17.3385" transform="rotate(-15.6048 1073.06 809.06)" fill="url(#paint4_linear_912_167)"/>
<path d="M1075.37 808.414C1076.65 812.993 1077.26 817.272 1077.22 820.481C1077.21 822.088 1077.03 823.398 1076.7 824.335C1076.37 825.29 1075.94 825.737 1075.51 825.858C1075.08 825.979 1074.48 825.819 1073.7 825.173C1072.94 824.539 1072.11 823.513 1071.26 822.147C1069.56 819.422 1067.87 815.446 1066.59 810.867C1065.31 806.288 1064.7 802.009 1064.74 798.801C1064.76 797.193 1064.94 795.883 1065.26 794.946C1065.59 793.991 1066.02 793.544 1066.45 793.423C1066.88 793.302 1067.48 793.462 1068.26 794.108C1069.02 794.742 1069.86 795.768 1070.7 797.134C1072.4 799.859 1074.09 803.835 1075.37 808.414Z" fill="url(#paint5_linear_912_167)" stroke="black"/>
<circle cx="44.0599" cy="1085.06" r="43.8747" transform="rotate(-15.6048 44.0599 1085.06)" fill="url(#paint6_radial_912_167)"/>
<ellipse cx="44.0591" cy="1085.06" rx="7.21875" ry="17.3385" transform="rotate(-15.6048 44.0591 1085.06)" fill="url(#paint7_linear_912_167)"/>
<path d="M46.3716 1084.41C47.6505 1088.99 48.261 1093.27 48.2238 1096.48C48.2052 1098.09 48.0241 1099.4 47.7015 1100.34C47.3729 1101.29 46.9426 1101.74 46.5094 1101.86C46.0761 1101.98 45.4761 1101.82 44.7004 1101.17C43.9391 1100.54 43.1055 1099.51 42.2564 1098.15C40.5619 1095.42 38.8669 1091.45 37.588 1086.87C36.3091 1082.29 35.6986 1078.01 35.7358 1074.8C35.7544 1073.19 35.9355 1071.88 36.2581 1070.95C36.5868 1069.99 37.017 1069.54 37.4503 1069.42C37.8835 1069.3 38.4835 1069.46 39.2592 1070.11C40.0205 1070.74 40.8541 1071.77 41.7032 1073.13C43.3978 1075.86 45.0927 1079.83 46.3716 1084.41Z" fill="url(#paint8_linear_912_167)" stroke="black"/>
<circle cx="1352.84" cy="186.842" r="33.1475" transform="rotate(-15.6048 1352.84 186.842)" fill="url(#paint9_radial_912_167)"/>
<ellipse cx="1352.84" cy="186.842" rx="5.4538" ry="13.0993" transform="rotate(-15.6048 1352.84 186.842)" fill="url(#paint10_linear_912_167)"/>
<path d="M1354.47 186.387C1355.44 189.839 1355.89 193.059 1355.87 195.469C1355.85 196.678 1355.72 197.653 1355.48 198.343C1355.23 199.051 1354.93 199.341 1354.66 199.416C1354.39 199.491 1353.98 199.401 1353.4 198.922C1352.84 198.455 1352.22 197.692 1351.58 196.665C1350.31 194.619 1349.03 191.626 1348.07 188.175C1347.11 184.723 1346.65 181.503 1346.68 179.093C1346.69 177.884 1346.83 176.909 1347.06 176.219C1347.31 175.511 1347.61 175.221 1347.88 175.146C1348.15 175.071 1348.56 175.161 1349.14 175.64C1349.7 176.107 1350.32 176.871 1350.96 177.897C1352.23 179.943 1353.51 182.936 1354.47 186.387Z" fill="url(#paint11_linear_912_167)" stroke="black"/>
<ellipse cx="1051.79" cy="1776.21" rx="224.864" ry="222.6" transform="rotate(-15.6048 1051.79 1776.21)" fill="#AF6725" fill-opacity="0.06"/>
<ellipse cx="1051.79" cy="1776.21" rx="205.143" ry="203.067" transform="rotate(-15.6048 1051.79 1776.21)" fill="#775333" fill-opacity="0.13"/>
<mask id="mask0_912_167" style="mask-type:alpha" maskUnits="userSpaceOnUse" x="868" y="1593" width="367" height="367">
<circle r="183.156" transform="matrix(-0.96314 0.269001 0.269001 0.96314 1051.79 1776.21)" fill="#9B6432"/>
</mask>
<g mask="url(#mask0_912_167)">
<circle r="183.156" transform="matrix(-0.96314 0.269001 0.269001 0.96314 1051.79 1776.21)" fill="url(#paint12_linear_912_167)"/>
<path d="M898.21 1620.2C922.695 1604.54 1058.4 1565.07 1090.86 1637.94C1117.69 1698.16 1117.09 1710.93 1188.87 1739.31C1225.8 1753.9 1209.43 1744.04 1259.83 1780.32C1293.16 1821.65 1295.58 1875.93 1302.68 1885.28C1309.78 1894.63 1281.09 1898.65 1265.86 1899.48C1260.28 1863.56 1232.83 1788.57 1167.69 1775.96C1083.49 1741.6 1066.88 1717.69 1023.9 1666.02C973.994 1615.11 952.811 1651.76 952.811 1651.76C907.464 1628.98 885.736 1634.11 881.378 1635.73C880.286 1636.33 880.249 1636.14 881.378 1635.73C883.447 1634.59 889.303 1630.65 898.21 1620.2Z" fill="#BEBEBE" fill-opacity="0.1"/>
<path d="M1267.81 1898.98C1247.63 1929.45 1123.92 2040.57 1073.69 1966.69C1032.17 1905.64 1029.56 1889.77 951.77 1888.45C911.748 1887.76 930.335 1892.21 871.618 1871.31C828.442 1836.33 812.448 1771.2 803.113 1763.09C793.778 1754.97 821.013 1736.77 835.797 1728.68C850.302 1769.93 896.137 1848.72 963.436 1833.89C1054.94 1836.76 1077.29 1858.24 1132.56 1901.37C1194.47 1940.34 1206.13 1885.79 1206.13 1885.79C1256.49 1892.56 1276.6 1876.21 1280.48 1872.22C1281.41 1870.98 1281.49 1871.19 1280.48 1872.22C1278.73 1874.57 1273.95 1882.09 1267.81 1898.98Z" fill="#BEBEBE" fill-opacity="0.1"/>
</g>
<path d="M1050.08 1829.2L1051.72 1841.5C1051.9 1842.86 1053.15 1843.82 1054.52 1843.63L1064.38 1842.32C1065.03 1842.23 1065.62 1841.89 1066.02 1841.37C1066.42 1840.84 1066.6 1840.18 1066.51 1839.53L1064.87 1827.23L1069.8 1826.57L1071.44 1838.87C1071.62 1840.23 1072.88 1841.19 1074.24 1841.01L1084.1 1839.69C1084.75 1839.6 1085.34 1839.26 1085.74 1838.74C1086.15 1838.21 1086.32 1837.55 1086.23 1836.9L1084.59 1824.6L1085.42 1824.49C1105.07 1821.87 1117.75 1809.84 1115.41 1792.25C1113.44 1777.47 1102.43 1770.72 1090.65 1771.12L1090.54 1770.25C1099.78 1766.59 1105.85 1758.45 1104.26 1746.49C1102.25 1731.41 1089.69 1723.77 1072.38 1726.08L1071.47 1726.2L1069.84 1713.9C1069.75 1713.25 1069.4 1712.66 1068.88 1712.26C1068.36 1711.86 1067.7 1711.68 1067.04 1711.77L1057.18 1713.08C1056.53 1713.17 1055.93 1713.51 1055.53 1714.04C1055.13 1714.56 1054.96 1715.22 1055.04 1715.87L1056.68 1728.17L1051.03 1728.93L1049.39 1716.63C1049.31 1715.97 1048.96 1715.38 1048.44 1714.98C1047.92 1714.58 1047.25 1714.41 1046.6 1714.49L1037.46 1715.71C1036.81 1715.8 1036.21 1716.14 1035.81 1716.67C1035.41 1717.19 1035.24 1717.85 1035.32 1718.5L1036.96 1730.8L1017.28 1733.54C1016.62 1733.62 1016.03 1733.97 1015.63 1734.49C1015.23 1735.01 1015.05 1735.67 1015.14 1736.33L1016.44 1746.06C1016.62 1747.41 1017.85 1748.37 1019.21 1748.19L1026.65 1747.15C1028.6 1746.9 1030.57 1747.44 1032.14 1748.64C1033.7 1749.84 1034.72 1751.6 1034.98 1753.55L1042.2 1807.72C1042.46 1809.68 1041.93 1811.66 1040.73 1813.23C1039.53 1814.8 1037.75 1815.83 1035.79 1816.09L1028.43 1817.18C1027.77 1817.27 1027.18 1817.61 1026.78 1818.13C1026.38 1818.65 1026.2 1819.31 1026.29 1819.97L1027.6 1829.81C1027.78 1831.16 1029.03 1832.12 1030.39 1831.94L1050.08 1829.2ZM1052.98 1743.56L1069.94 1741.3C1078.87 1740.11 1084.77 1744.31 1085.84 1752.32C1086.98 1760.89 1081.95 1766.48 1069.11 1768.19L1056.49 1769.87L1052.98 1743.56V1743.56ZM1058.3 1783.42L1076.44 1781C1087.65 1779.51 1094.52 1784.4 1095.76 1793.69C1097.01 1803.07 1091.49 1808.78 1076.38 1810.79L1062.2 1812.69L1058.3 1783.43L1058.3 1783.42Z" fill="#FFF4CB"/>
<path d="M1062.67 1837.48L1064.51 1851.27C1064.71 1852.8 1066.11 1853.87 1067.64 1853.66L1078.69 1852.19C1079.43 1852.09 1080.09 1851.71 1080.54 1851.12C1080.99 1850.53 1081.19 1849.79 1081.09 1849.06L1079.25 1835.27L1084.78 1834.53L1086.62 1848.33C1086.82 1849.85 1088.22 1850.92 1089.75 1850.72L1100.8 1849.24C1101.54 1849.14 1102.2 1848.76 1102.65 1848.17C1103.1 1847.59 1103.3 1846.85 1103.2 1846.11L1101.36 1832.32L1102.29 1832.2C1124.31 1829.26 1138.53 1815.77 1135.9 1796.05C1133.69 1779.48 1121.35 1771.9 1108.15 1772.35L1108.02 1771.38C1118.38 1767.28 1125.19 1758.15 1123.4 1744.73C1121.15 1727.83 1107.07 1719.26 1087.67 1721.85L1086.65 1721.99L1084.81 1708.19C1084.71 1707.46 1084.33 1706.8 1083.74 1706.35C1083.15 1705.9 1082.41 1705.71 1081.68 1705.8L1070.62 1707.28C1069.89 1707.37 1069.23 1707.76 1068.78 1708.35C1068.33 1708.93 1068.13 1709.67 1068.23 1710.4L1070.07 1724.2L1063.73 1725.04L1061.89 1711.25C1061.8 1710.52 1061.41 1709.85 1060.83 1709.41C1060.24 1708.96 1059.5 1708.76 1058.76 1708.86L1048.52 1710.22C1047.78 1710.32 1047.12 1710.71 1046.67 1711.29C1046.22 1711.88 1046.02 1712.62 1046.12 1713.35L1047.96 1727.14L1025.89 1730.21C1025.16 1730.31 1024.49 1730.69 1024.04 1731.28C1023.59 1731.86 1023.4 1732.61 1023.49 1733.34L1024.95 1744.25C1025.15 1745.76 1026.53 1746.85 1028.06 1746.64L1036.4 1745.47C1038.59 1745.2 1040.8 1745.8 1042.55 1747.14C1044.3 1748.49 1045.44 1750.47 1045.73 1752.65L1053.83 1813.39C1054.13 1815.59 1053.53 1817.81 1052.18 1819.57C1050.84 1821.33 1048.84 1822.48 1046.65 1822.77L1038.39 1824C1037.66 1824.09 1037 1824.48 1036.55 1825.07C1036.1 1825.65 1035.9 1826.39 1036 1827.12L1037.47 1838.16C1037.67 1839.68 1039.07 1840.75 1040.6 1840.55L1062.67 1837.48ZM1065.92 1741.45L1084.92 1738.91C1094.94 1737.58 1101.55 1742.29 1102.75 1751.27C1104.03 1760.88 1098.4 1767.15 1084 1769.07L1069.85 1770.95L1065.92 1741.45V1741.45ZM1071.88 1786.15L1092.22 1783.43C1104.79 1781.76 1112.49 1787.24 1113.87 1797.66C1115.28 1808.18 1109.09 1814.58 1092.15 1816.84L1076.26 1818.96L1071.88 1786.16L1071.88 1786.15Z" fill="url(#paint13_linear_912_167)"/>
<path d="M1066.6 1644.37C1145.72 1673.9 1211.67 1715.76 1254.35 1759.56C1297.06 1803.4 1316.33 1849.02 1302.49 1886.13C1288.64 1923.23 1244.19 1945.08 1183.21 1950.22C1122.27 1955.36 1045.01 1943.79 965.889 1914.27C886.768 1884.74 820.813 1842.88 778.134 1799.07C735.425 1755.24 716.151 1709.62 729.996 1672.51C743.842 1635.4 788.292 1613.56 849.275 1608.42C910.215 1603.28 987.475 1614.85 1066.6 1644.37Z" stroke="#FFF5D3"/>
<ellipse cx="1761.99" cy="986.252" rx="176.872" ry="175.09" transform="rotate(-15.6048 1761.99 986.252)" fill="#211B5D" fill-opacity="0.33"/>
<ellipse cx="1761.99" cy="986.251" rx="161.359" ry="159.726" transform="rotate(-15.6048 1761.99 986.251)" fill="#211B5D" fill-opacity="0.13"/>
<mask id="mask1_912_167" style="mask-type:alpha" maskUnits="userSpaceOnUse" x="1617" y="842" width="290" height="289">
<circle r="144.065" transform="matrix(-0.96314 0.269001 0.269001 0.96314 1761.99 986.252)" fill="#9B6432"/>
</mask>
<g mask="url(#mask1_912_167)">
<circle r="144.065" transform="matrix(-0.96314 0.269001 0.269001 0.96314 1761.99 986.252)" fill="url(#paint14_linear_912_167)"/>
<path d="M1639.92 850.369C1657.67 839.107 1756.17 810.926 1779.95 863.731C1799.61 907.375 1799.21 916.612 1851.45 937.335C1878.32 947.997 1866.4 940.815 1903.12 967.203C1927.45 997.191 1929.36 1036.47 1934.54 1043.25C1939.73 1050.04 1918.9 1052.86 1907.83 1053.43C1903.68 1027.42 1883.52 973.092 1836.15 963.79C1774.89 938.707 1762.75 921.362 1731.38 883.862C1694.98 846.895 1679.68 873.35 1679.68 873.35C1646.67 856.745 1630.9 860.401 1627.74 861.557C1626.94 861.988 1626.92 861.856 1627.74 861.557C1629.24 860.74 1633.48 857.906 1639.92 850.369Z" fill="#BEBEBE" fill-opacity="0.15"/>
<path d="M1553.39 1000.08C1574.73 982.601 1687.44 929.838 1704.7 993.924C1718.97 1046.89 1716.99 1058.86 1770.81 1076.85C1798.49 1086.11 1786.62 1078.84 1822.48 1106.72C1844.15 1141.31 1839.69 1191.61 1844.24 1199.49C1848.79 1207.37 1825.48 1214.48 1813.25 1217.06C1813.04 1184.24 1800.01 1117.58 1749.62 1113.5C1686.63 1091.4 1676.22 1071.07 1648.08 1027.98C1614.34 986.411 1593.15 1023.06 1593.15 1023.06C1559.73 1007.17 1541.82 1014.51 1538.16 1016.53C1537.22 1017.22 1537.21 1017.05 1538.16 1016.53C1539.94 1015.23 1545.07 1010.87 1553.39 1000.08Z" fill="#BEBEBE" fill-opacity="0.1"/>
</g>
<g clip-path="url(#clip0_912_167)">
<path d="M1761.06 911.634L1760.13 915.047L1762.25 1013.45L1763.26 1014.43L1808.34 986.446L1761.06 911.634Z" fill="url(#paint15_linear_912_167)"/>
<path d="M1761.06 911.634L1717.03 988.406L1763.26 1014.43L1762.24 966.664L1761.06 911.634Z" fill="#DDDFF9"/>
<path d="M1763.45 1023.07L1762.9 1023.77L1763.66 1058.83L1764.25 1060.46L1808.56 995.107L1763.45 1023.07Z" fill="url(#paint16_linear_912_167)"/>
<path d="M1764.25 1060.46L1763.45 1023.07L1717.21 997.067L1764.25 1060.46Z" fill="#DDDFF9"/>
<path d="M1763.26 1014.43L1808.34 986.446L1762.24 966.664L1763.26 1014.43Z" fill="url(#paint17_linear_912_167)"/>
<path d="M1717.03 988.406L1763.26 1014.43L1762.24 966.664L1717.03 988.406Z" fill="url(#paint18_linear_912_167)"/>
</g>
<path d="M1818.84 1115.78C1737.56 1138.69 1659.61 1143.87 1599.3 1133.73C1538.95 1123.59 1496.44 1098.16 1485.7 1060.04C1474.95 1021.92 1497.91 978.038 1544.08 937.868C1590.22 897.726 1659.4 861.427 1740.68 838.514C1821.96 815.601 1899.91 810.424 1960.22 820.558C2020.57 830.699 2063.08 856.128 2073.82 894.248C2084.57 932.368 2061.61 976.252 2015.44 1016.42C1969.3 1056.56 1900.12 1092.86 1818.84 1115.78Z" stroke="#FFFBFB"/>
<ellipse cx="953.555" cy="152.862" rx="154.468" ry="151.909" transform="rotate(-15.6048 953.555 152.862)" fill="#AC2626" fill-opacity="0.17"/>
<ellipse cx="953.555" cy="152.862" rx="141.001" ry="138.577" transform="rotate(-15.6048 953.555 152.862)" fill="#A42828" fill-opacity="0.24"/>
<mask id="mask2_912_167" style="mask-type:alpha" maskUnits="userSpaceOnUse" x="827" y="27" width="253" height="251">
<ellipse rx="125.837" ry="124.992" transform="matrix(-0.96314 0.269001 0.269001 0.96314 953.687 152.856)" fill="#9B6432"/>
</mask>
<g mask="url(#mask2_912_167)">
<ellipse rx="125.837" ry="124.992" transform="matrix(-0.96314 0.269001 0.269001 0.96314 953.687 152.856)" fill="url(#paint19_linear_912_167)"/>
<path d="M754.307 54.3337C778.219 26.6953 915.125 -67.6863 955.494 12.0042C988.859 77.8681 989.422 93.9363 1066.4 105.203C1106.01 111 1088.14 104.211 1143.7 132.454C1182.05 172.663 1189.58 239.303 1197.8 248.548C1206.02 257.794 1176.68 272.362 1160.99 278.49C1151.88 235.724 1116.5 151.717 1047.85 157.816C957.466 143.265 938.045 119.106 888.743 69.2649C832.333 22.6884 813.785 75.3013 813.785 75.3013C764.706 62.148 742.676 75.7888 738.311 79.251C737.235 80.3615 737.181 80.1475 738.311 79.251C740.348 77.148 746.049 70.2955 754.307 54.3337Z" fill="#BEBEBE" fill-opacity="0.1"/>
<path d="M696.258 154.764C720.17 127.126 857.076 32.7444 897.445 112.435C930.81 178.299 931.373 194.367 1008.35 205.634C1047.96 211.431 1030.09 204.642 1085.65 232.885C1124 273.093 1131.53 339.733 1139.75 348.979C1147.97 358.225 1118.63 372.793 1102.94 378.921C1093.83 336.155 1058.45 252.148 989.804 258.247C899.417 243.696 879.996 219.537 830.695 169.696C774.284 123.119 755.736 175.732 755.736 175.732C706.657 162.579 684.627 176.219 680.262 179.682C679.186 180.792 679.132 180.578 680.262 179.682C682.3 177.579 688 170.726 696.258 154.764Z" fill="#BEBEBE" fill-opacity="0.1"/>
</g>
<path d="M976.644 165.586L990.062 178.658L951.942 212.363L915.635 176.98L929.721 164.525L952.612 186.95L976.644 165.586V165.586ZM1000.68 144.336L1014.21 157.41L1000.14 169.86L986.719 156.788L1000.68 144.336V144.336ZM953.755 143.274L967.17 156.233L953.085 168.688L939.669 155.724L953.75 143.279L953.755 143.274ZM906.821 142.213L920.123 155.282L906.167 167.622L892.741 154.663L906.821 142.213V142.213ZM954.9 99.7023L991.209 134.982L977.124 147.427L954.23 125.115L930.198 146.479L916.78 133.408L954.895 99.7068L954.9 99.7023Z" fill="url(#paint20_linear_912_167)"/>
<path d="M976.648 156.434L990.066 169.506L951.947 203.211L915.64 167.828L929.725 155.373L952.616 177.798L976.648 156.434V156.434ZM1000.69 135.183L1014.22 148.257L1000.14 160.707L986.724 147.636L1000.69 135.183V135.183ZM953.759 134.122L967.175 147.081L953.089 159.535L939.674 146.572L953.754 134.127L953.759 134.122ZM906.826 133.061L920.127 146.13L906.171 158.47L892.745 145.511L906.826 133.061V133.061ZM954.904 90.5499L991.214 125.83L977.128 138.275L954.234 115.963L930.202 137.327L916.785 124.255L954.899 90.5545L954.904 90.5499Z" fill="url(#paint21_linear_912_167)"/>
<path d="M952.443 97.8019C1035.07 80.2438 1112.05 74.7038 1169.72 79.9296C1198.55 82.5428 1222.53 87.8455 1239.96 95.6639C1257.4 103.488 1268.18 113.782 1270.85 126.326C1273.52 138.869 1267.85 152.66 1255.1 166.9C1242.35 181.13 1222.6 195.724 1197.32 209.837C1146.77 238.061 1074.18 264.305 991.557 281.863C908.931 299.421 831.948 304.961 774.282 299.735C745.447 297.122 721.471 291.819 704.042 284.001C686.601 276.177 675.815 265.883 673.15 253.339C670.484 240.795 676.151 227.005 688.904 212.765C701.647 198.535 721.395 183.941 746.677 169.827C797.234 141.604 869.818 115.36 952.443 97.8019Z" stroke="#FFF8DE"/>
<ellipse cx="329.932" cy="1003.49" rx="153.338" ry="150.798" transform="rotate(-15.6048 329.932 1003.49)" fill="#9926AC" fill-opacity="0.19"/>
<ellipse cx="329.932" cy="1003.49" rx="139.97" ry="137.563" transform="rotate(-15.6048 329.932 1003.49)" fill="#9328A4" fill-opacity="0.22"/>
<mask id="mask3_912_167" style="mask-type:alpha" maskUnits="userSpaceOnUse" x="205" y="879" width="250" height="249">
<ellipse rx="124.917" ry="124.078" transform="matrix(-0.96314 0.269001 0.269001 0.96314 329.955 1003.48)" fill="#9B6432"/>
</mask>
<g mask="url(#mask3_912_167)">
<ellipse rx="124.917" ry="124.078" transform="matrix(-0.96314 0.269001 0.269001 0.96314 329.955 1003.48)" fill="url(#paint22_linear_912_167)"/>
<path d="M514.073 1079.52C493.893 1109.99 370.184 1221.11 319.953 1147.24C278.438 1086.18 275.825 1070.32 198.038 1068.99C158.016 1068.31 176.602 1072.75 117.885 1051.85C74.7099 1016.88 58.7153 951.747 49.3803 943.629C40.0454 935.51 67.2805 917.309 82.0649 909.224C96.5698 950.473 142.404 1029.26 209.703 1014.44C301.208 1017.31 323.56 1038.78 378.832 1081.91C440.736 1120.89 452.402 1066.33 452.402 1066.33C502.761 1073.1 522.865 1056.76 526.751 1052.76C527.676 1051.53 527.757 1051.73 526.751 1052.76C524.999 1055.11 520.222 1062.64 514.073 1079.52Z" fill="#BEBEBE" fill-opacity="0.1"/>
<path d="M103.063 889.136C126.975 861.498 263.881 767.116 304.25 846.806C337.615 912.67 338.178 928.739 415.156 940.005C454.762 945.802 436.897 939.013 492.458 967.256C530.805 1007.46 538.338 1074.1 546.558 1083.35C554.778 1092.6 525.439 1107.16 509.741 1113.29C500.632 1070.53 465.252 986.52 396.609 992.618C306.223 978.067 286.801 953.908 237.5 904.067C181.089 857.491 162.542 910.104 162.542 910.104C113.462 896.95 91.4319 910.591 87.0673 914.053C85.9914 915.164 85.937 914.95 87.0673 914.053C89.1047 911.95 94.8056 905.098 103.063 889.136Z" fill="#BEBEBE" fill-opacity="0.1"/>
</g>
<path d="M346.323 1021.96L364.463 1008.51L367.225 1012.2L356.675 1020.02L353.463 1022.4L355.86 1025.61L359.71 1030.75L357.68 1032.25L353.83 1027.11L351.433 1023.91L348.22 1026.29L337.67 1034.12L335.162 1030.77L335.018 987.542L334.992 979.616L328.612 984.348L310.481 997.797L307.715 994.103L318.261 986.281L321.474 983.898L319.076 980.696L315.202 975.522L317.232 974.016L321.109 979.195L323.507 982.397L326.719 980.014L337.265 972.192L339.774 975.542L339.917 1018.77L339.944 1026.69L346.323 1021.96ZM290.256 1038.18C270.941 1012.38 276.373 975.672 302.425 956.349C328.477 937.026 365.372 942.339 384.687 968.135C404.002 993.931 398.57 1030.64 372.518 1049.96C346.466 1069.28 309.571 1063.97 290.256 1038.18ZM292.151 1036.77C310.729 1061.58 346.153 1066.64 371.134 1048.11C396.116 1029.59 401.37 994.353 382.792 969.541C364.213 944.728 328.79 939.668 303.808 958.197C278.827 976.726 273.573 1011.96 292.151 1036.77Z" fill="#B591BA" stroke="#CEAAD3" stroke-width="8"/>
<path d="M350.809 1015.52L368.948 1002.06L371.711 1005.75L361.161 1013.58L357.948 1015.96L360.345 1019.16L364.195 1024.3L362.165 1025.81L358.316 1020.67L355.918 1017.46L352.706 1019.85L342.156 1027.67L339.647 1024.32L339.503 981.096L339.477 973.17L333.097 977.902L314.966 991.35L312.201 987.657L322.747 979.835L325.959 977.452L323.562 974.25L319.687 969.075L321.717 967.57L325.595 972.748L327.992 975.95L331.205 973.567L341.75 965.745L344.259 969.096L344.403 1012.32L344.429 1020.25L350.809 1015.52ZM294.741 1031.73C275.427 1005.93 280.859 969.226 306.91 949.903C332.962 930.58 369.857 935.892 389.172 961.689C408.487 987.485 403.055 1024.19 377.003 1043.52C350.951 1062.84 314.056 1057.53 294.741 1031.73ZM296.637 1030.32C315.215 1055.14 350.638 1060.2 375.62 1041.67C400.601 1023.14 405.855 987.907 387.277 963.094C368.699 938.282 333.275 933.221 308.294 951.75C283.312 970.28 278.058 1005.51 296.637 1030.32Z" fill="url(#paint23_linear_912_167)" stroke="#3E0947" stroke-width="8"/>
<path d="M289.443 915.953C372.068 898.395 449.052 892.855 506.717 898.081C535.553 900.694 559.529 905.997 576.958 913.815C594.399 921.639 605.185 931.933 607.85 944.477C610.516 957.021 604.849 970.811 592.096 985.051C579.352 999.281 559.605 1013.88 534.323 1027.99C483.766 1056.21 411.182 1082.46 328.557 1100.01C245.931 1117.57 168.948 1123.11 111.282 1117.89C82.4466 1115.27 58.4707 1109.97 41.0416 1102.15C23.6005 1094.33 12.8153 1084.03 10.1497 1071.49C7.48406 1058.95 13.1513 1045.16 25.9038 1030.92C38.6475 1016.69 58.3952 1002.09 83.6766 987.979C134.234 959.755 206.818 933.511 289.443 915.953Z" stroke="#1A1A1A"/>
<path d="M302.585 877.411C385.788 862.955 463.857 865.8 522.81 882.065C581.805 898.342 621.476 927.996 628.256 967.017C635.036 1006.04 607.693 1047.34 557.647 1082.56C507.635 1117.76 435.101 1146.77 351.899 1161.23C268.697 1175.68 190.627 1172.84 131.674 1156.57C72.6789 1140.3 33.0086 1110.64 26.2286 1071.62C19.4486 1032.6 46.7908 991.302 96.8373 956.079C146.849 920.881 219.383 891.868 302.585 877.411Z" stroke="#FFF5D3"/>
<defs>
<radialGradient id="paint0_radial_912_167" cx="0" cy="0" r="1" gradientUnits="userSpaceOnUse" gradientTransform="translate(866.803 1454.76) rotate(80.7659) scale(119.216)">
<stop stop-color="#464662"/>
<stop offset="1" stop-color="#090826"/>
</radialGradient>
<linearGradient id="paint1_linear_912_167" x1="885.934" y1="1476.53" x2="885.934" y2="1530.85" gradientUnits="userSpaceOnUse">
<stop stop-color="white"/>
<stop offset="1" stop-color="#B7B7CB" stop-opacity="0"/>
</linearGradient>
<linearGradient id="paint2_linear_912_167" x1="875.37" y1="1478.44" x2="889.983" y2="1530.76" gradientUnits="userSpaceOnUse">
<stop stop-color="white"/>
<stop offset="1" stop-color="#B7B7CB" stop-opacity="0"/>
</linearGradient>
<radialGradient id="paint3_radial_912_167" cx="0" cy="0" r="1" gradientUnits="userSpaceOnUse" gradientTransform="translate(1060.85 777.823) rotate(80.7659) scale(76.0972)">
<stop stop-color="#464662"/>
<stop offset="1" stop-color="#090826"/>
</radialGradient>
<linearGradient id="paint4_linear_912_167" x1="1073.06" y1="791.721" x2="1073.06" y2="826.398" gradientUnits="userSpaceOnUse">
<stop stop-color="white"/>
<stop offset="1" stop-color="#B7B7CB" stop-opacity="0"/>
</linearGradient>
<linearGradient id="paint5_linear_912_167" x1="1066.32" y1="792.941" x2="1075.64" y2="826.34" gradientUnits="userSpaceOnUse">
<stop stop-color="white"/>
<stop offset="1" stop-color="#B7B7CB" stop-opacity="0"/>
</linearGradient>
<radialGradient id="paint6_radial_912_167" cx="0" cy="0" r="1" gradientUnits="userSpaceOnUse" gradientTransform="translate(31.8487 1053.82) rotate(80.7659) scale(76.0972)">
<stop stop-color="#464662"/>
<stop offset="1" stop-color="#090826"/>
</radialGradient>
<linearGradient id="paint7_linear_912_167" x1="44.0591" y1="1067.72" x2="44.0591" y2="1102.4" gradientUnits="userSpaceOnUse">
<stop stop-color="white"/>
<stop offset="1" stop-color="#B7B7CB" stop-opacity="0"/>
</linearGradient>
<linearGradient id="paint8_linear_912_167" x1="37.3157" y1="1068.94" x2="46.6439" y2="1102.34" gradientUnits="userSpaceOnUse">
<stop stop-color="white"/>
<stop offset="1" stop-color="#B7B7CB" stop-opacity="0"/>
</linearGradient>
<radialGradient id="paint9_radial_912_167" cx="0" cy="0" r="1" gradientUnits="userSpaceOnUse" gradientTransform="translate(1343.62 163.243) rotate(80.7659) scale(57.4917)">
<stop stop-color="#464662"/>
<stop offset="1" stop-color="#090826"/>
</radialGradient>
<linearGradient id="paint10_linear_912_167" x1="1352.84" y1="173.743" x2="1352.84" y2="199.942" gradientUnits="userSpaceOnUse">
<stop stop-color="white"/>
<stop offset="1" stop-color="#B7B7CB" stop-opacity="0"/>
</linearGradient>
<linearGradient id="paint11_linear_912_167" x1="1347.75" y1="174.665" x2="1354.79" y2="199.897" gradientUnits="userSpaceOnUse">
<stop stop-color="white"/>
<stop offset="1" stop-color="#B7B7CB" stop-opacity="0"/>
</linearGradient>
<linearGradient id="paint12_linear_912_167" x1="337.132" y1="274.892" x2="25.5464" y2="75.0273" gradientUnits="userSpaceOnUse">
<stop offset="0.151042" stop-color="#4E3622"/>
<stop offset="1" stop-color="#C47733"/>
</linearGradient>
<linearGradient id="paint13_linear_912_167" x1="1072.02" y1="1707.09" x2="1091.14" y2="1850.53" gradientUnits="userSpaceOnUse">
<stop stop-color="#6B4A2D"/>
<stop offset="1" stop-color="#211913"/>
</linearGradient>
<linearGradient id="paint14_linear_912_167" x1="91.0285" y1="3.33016" x2="208.044" y2="289.848" gradientUnits="userSpaceOnUse">
<stop stop-color="#271B9B"/>
<stop offset="1" stop-color="#0F0B3A"/>
</linearGradient>
<linearGradient id="paint15_linear_912_167" x1="1783.39" y1="911.155" x2="1785.6" y2="1013.95" gradientUnits="userSpaceOnUse">
<stop offset="0.333333" stop-color="#8689B0"/>
<stop offset="1" stop-color="#61648E"/>
</linearGradient>
<linearGradient id="paint16_linear_912_167" x1="1785.43" y1="995.604" x2="1786.82" y2="1059.97" gradientUnits="userSpaceOnUse">
<stop stop-color="#8F92B9"/>
<stop offset="1" stop-color="#595D8A"/>
</linearGradient>
<linearGradient id="paint17_linear_912_167" x1="1785.07" y1="966.174" x2="1763.4" y2="999.271" gradientUnits="userSpaceOnUse">
<stop stop-color="#696B85"/>
<stop offset="1" stop-color="#4B4D67"/>
</linearGradient>
<linearGradient id="paint18_linear_912_167" x1="1739.41" y1="967.154" x2="1740.43" y2="1014.92" gradientUnits="userSpaceOnUse">
<stop stop-color="#696B85"/>
<stop offset="1" stop-color="#3D3E55"/>
</linearGradient>
<linearGradient id="paint19_linear_912_167" x1="125.837" y1="0" x2="125.837" y2="249.984" gradientUnits="userSpaceOnUse">
<stop stop-color="#D30D0D"/>
<stop offset="1" stop-color="#690505"/>
</linearGradient>
<linearGradient id="paint20_linear_912_167" x1="954.95" y1="99.7034" x2="952.403" y2="212.374" gradientUnits="userSpaceOnUse">
<stop stop-color="#F5D7D7"/>
<stop offset="1" stop-color="#871C1C"/>
</linearGradient>
<linearGradient id="paint21_linear_912_167" x1="954.955" y1="90.5511" x2="952.407" y2="203.222" gradientUnits="userSpaceOnUse">
<stop stop-color="#950E0E"/>
<stop offset="1" stop-color="#871C1C"/>
</linearGradient>
<linearGradient id="paint22_linear_912_167" x1="124.917" y1="0" x2="124.917" y2="248.156" gradientUnits="userSpaceOnUse">
<stop stop-color="#9D11B4"/>
<stop offset="1" stop-color="#400B48"/>
</linearGradient>
<linearGradient id="paint23_linear_912_167" x1="304.513" y1="946.701" x2="378.947" y2="1047.05" gradientUnits="userSpaceOnUse">
<stop stop-color="#9316A7"/>
<stop offset="1" stop-color="#2F0C35"/>
</linearGradient>
<clipPath id="clip0_912_167">
<rect width="91.3676" height="148.89" fill="white" transform="translate(1715.4 912.614) rotate(-1.22962)"/>
</clipPath>
</defs>
</svg>
